<svg width="16" height="16" viewBox="0 0 16 16" fill="none" xmlns="http://www.w3.org/2000/svg">
<g id="format-square">
<g id="Group 1000003197">
<path id="Vector" d="M12 4L4 12" stroke="#A9AAAB" stroke-width="1.5" stroke-miterlimit="10" stroke-linecap="round" stroke-linejoin="round"/>
<path id="Vector_2" d="M15.1112 2.66669C15.1112 3.52714 14.4997 4.24536 13.689 4.40892C13.5752 4.43025 13.4543 4.44447 13.3334 4.44447C12.3521 4.44447 11.5557 3.64803 11.5557 2.66669C11.5557 2.5458 11.5699 2.42492 11.5912 2.31114C11.7548 1.50047 12.473 0.888916 13.3334 0.888916C14.3148 0.888916 15.1112 1.68536 15.1112 2.66669Z" stroke="#A9AAAB" stroke-width="1.5" stroke-linecap="round" stroke-linejoin="round"/>
<path id="Vector_3" d="M4.44423 13.3333C4.44423 13.4542 4.43001 13.5751 4.40867 13.6889C4.24512 14.4995 3.52689 15.1111 2.66645 15.1111C1.68512 15.1111 0.888672 14.3147 0.888672 13.3333C0.888672 12.4729 1.50023 11.7547 2.31089 11.5911C2.42467 11.5698 2.54556 11.5555 2.66645 11.5555C3.64778 11.5555 4.44423 12.352 4.44423 13.3333Z" stroke="#A9AAAB" stroke-width="1.5" stroke-linecap="round" stroke-linejoin="round"/>
</g>
</g>
</svg>
