<svg width="16" height="16" viewBox="0 0 16 16" fill="none" xmlns="http://www.w3.org/2000/svg">
<g id="format-square">
<g id="vuesax/linear/format-square">
<g id="format-square_2">
<g id="Group 1000003197">
<path id="Vector" d="M13.6883 4.40906V11.5913C13.5745 11.5699 13.4537 11.5557 13.3328 11.5557C12.3514 11.5557 11.555 12.3522 11.555 13.3335C11.555 13.4544 11.5692 13.5753 11.5905 13.6891H4.40832C4.42966 13.5753 4.44388 13.4544 4.44388 13.3335C4.44388 12.3522 3.64744 11.5557 2.6661 11.5557C2.54521 11.5557 2.42432 11.5699 2.31055 11.5913V4.40906C2.42432 4.43039 2.54521 4.44461 2.6661 4.44461C3.64744 4.44461 4.44388 3.64817 4.44388 2.66683C4.44388 2.54595 4.42966 2.42506 4.40832 2.31128H11.5905C11.5692 2.42506 11.555 2.54595 11.555 2.66683C11.555 3.64817 12.3514 4.44461 13.3328 4.44461C13.4537 4.44461 13.5745 4.43039 13.6883 4.40906Z" stroke="#A9AAAB" stroke-width="1.5" stroke-linecap="round" stroke-linejoin="round"/>
<path id="Vector_2" d="M4.44423 2.66669C4.44423 3.64803 3.64778 4.44447 2.66645 4.44447C2.54556 4.44447 2.42467 4.43025 2.31089 4.40892C1.50023 4.24536 0.888672 3.52714 0.888672 2.66669C0.888672 1.68536 1.68512 0.888916 2.66645 0.888916C3.52689 0.888916 4.24512 1.50047 4.40867 2.31114C4.43001 2.42492 4.44423 2.5458 4.44423 2.66669Z" stroke="#A9AAAB" stroke-width="1.5" stroke-linecap="round" stroke-linejoin="round"/>
<path id="Vector_3" d="M15.1112 2.66669C15.1112 3.52714 14.4997 4.24536 13.689 4.40892C13.5752 4.43025 13.4543 4.44447 13.3334 4.44447C12.3521 4.44447 11.5557 3.64803 11.5557 2.66669C11.5557 2.5458 11.5699 2.42492 11.5912 2.31114C11.7548 1.50047 12.473 0.888916 13.3334 0.888916C14.3148 0.888916 15.1112 1.68536 15.1112 2.66669Z" stroke="#A9AAAB" stroke-width="1.5" stroke-linecap="round" stroke-linejoin="round"/>
<path id="Vector_4" d="M4.44423 13.3333C4.44423 13.4542 4.43001 13.5751 4.40867 13.6889C4.24512 14.4995 3.52689 15.1111 2.66645 15.1111C1.68512 15.1111 0.888672 14.3147 0.888672 13.3333C0.888672 12.4729 1.50023 11.7547 2.31089 11.5911C2.42467 11.5698 2.54556 11.5555 2.66645 11.5555C3.64778 11.5555 4.44423 12.352 4.44423 13.3333Z" stroke="#A9AAAB" stroke-width="1.5" stroke-linecap="round" stroke-linejoin="round"/>
<path id="Vector_5" d="M15.1112 13.3333C15.1112 14.3147 14.3148 15.1111 13.3334 15.1111C12.473 15.1111 11.7548 14.4995 11.5912 13.6889C11.5699 13.5751 11.5557 13.4542 11.5557 13.3333C11.5557 12.352 12.3521 11.5555 13.3334 11.5555C13.4543 11.5555 13.5752 11.5698 13.689 11.5911C14.4997 11.7547 15.1112 12.4729 15.1112 13.3333Z" stroke="#A9AAAB" stroke-width="1.5" stroke-linecap="round" stroke-linejoin="round"/>
</g>
</g>
</g>
</g>
</svg>
