<svg width="43" height="25" viewBox="0 0 43 25" fill="none" xmlns="http://www.w3.org/2000/svg">
<mask id="path-1-outside-1_345_4488" maskUnits="userSpaceOnUse" x="-0.251953" y="-0.493408" width="44" height="26" fill="black">
<rect fill="white" x="-0.251953" y="-0.493408" width="44" height="26"/>
<path d="M7.50805 23.7466C6.28805 23.7466 5.12805 23.7166 4.02805 23.6566C2.94805 23.5966 2.08805 23.5266 1.44805 23.4466V2.56659C2.14805 2.48659 3.01805 2.41659 4.05805 2.35659C5.09805 2.29659 6.28805 2.26659 7.62805 2.26659C10.188 2.26659 12.158 2.75659 13.538 3.73659C14.918 4.69659 15.608 6.00659 15.608 7.66659C15.608 8.76659 15.308 9.70659 14.708 10.4866C14.128 11.2466 13.278 11.8766 12.158 12.3766C13.518 12.8566 14.548 13.5266 15.248 14.3866C15.948 15.2266 16.298 16.2666 16.298 17.5066C16.298 19.4066 15.548 20.9266 14.048 22.0666C12.548 23.1866 10.368 23.7466 7.50805 23.7466ZM4.29805 11.5666H7.59805C9.17805 11.5666 10.428 11.2366 11.348 10.5766C12.288 9.91659 12.758 9.06659 12.758 8.02659C12.758 6.90659 12.298 6.05659 11.378 5.47659C10.458 4.87659 9.19805 4.57659 7.59805 4.57659C6.93805 4.57659 6.33805 4.59659 5.79805 4.63659C5.25805 4.65659 4.75805 4.68659 4.29805 4.72659V11.5666ZM7.71805 21.3766C9.49805 21.3766 10.888 21.0566 11.888 20.4166C12.888 19.7766 13.388 18.8466 13.388 17.6266C13.388 16.4266 12.898 15.4866 11.918 14.8066C10.938 14.1266 9.53805 13.7866 7.71805 13.7866H4.29805V21.1966C5.35805 21.3166 6.49805 21.3766 7.71805 21.3766ZM20.0445 23.5066V7.90659H22.7445V23.5066H20.0445ZM21.3945 5.23659C20.8745 5.23659 20.4245 5.04659 20.0445 4.66659C19.6845 4.28659 19.5045 3.84659 19.5045 3.34659C19.5045 2.76659 19.6745 2.30659 20.0145 1.96659C20.3545 1.62659 20.8145 1.45659 21.3945 1.45659C21.9145 1.45659 22.3545 1.64659 22.7145 2.02659C23.0945 2.38659 23.2845 2.82659 23.2845 3.34659C23.2845 3.90659 23.1145 4.36659 22.7745 4.72659C22.4345 5.06659 21.9745 5.23659 21.3945 5.23659ZM34.1145 23.8666C32.6345 23.8666 31.3045 23.5266 30.1245 22.8466C28.9445 22.1466 28.0145 21.1866 27.3345 19.9666C26.6745 18.7266 26.3445 17.3066 26.3445 15.7066C26.3445 14.0266 26.6845 12.5766 27.3645 11.3566C28.0445 10.1366 28.9745 9.19659 30.1545 8.53659C31.3345 7.87659 32.6545 7.54659 34.1145 7.54659C35.5745 7.54659 36.8845 7.87659 38.0445 8.53659C39.2245 9.19659 40.1545 10.1366 40.8345 11.3566C41.5345 12.5566 41.8845 13.9866 41.8845 15.6466C41.8845 17.3066 41.5445 18.7566 40.8645 19.9966C40.1845 21.2166 39.2545 22.1666 38.0745 22.8466C36.9145 23.5266 35.5945 23.8666 34.1145 23.8666ZM34.1145 21.4666C35.6945 21.4666 36.9245 20.9366 37.8045 19.8766C38.6845 18.7966 39.1245 17.4066 39.1245 15.7066C39.1245 14.6666 38.9045 13.7166 38.4645 12.8566C38.0245 11.9766 37.4245 11.2766 36.6645 10.7566C35.9245 10.2166 35.0745 9.94659 34.1145 9.94659C32.5345 9.94659 31.3045 10.4666 30.4245 11.5066C29.5445 12.5466 29.1045 13.9266 29.1045 15.6466C29.1045 16.6866 29.3245 17.6566 29.7645 18.5566C30.2045 19.4366 30.7945 20.1466 31.5345 20.6866C32.2945 21.2066 33.1545 21.4666 34.1145 21.4666Z"/>
</mask>
<path d="M7.50805 23.7466C6.28805 23.7466 5.12805 23.7166 4.02805 23.6566C2.94805 23.5966 2.08805 23.5266 1.44805 23.4466V2.56659C2.14805 2.48659 3.01805 2.41659 4.05805 2.35659C5.09805 2.29659 6.28805 2.26659 7.62805 2.26659C10.188 2.26659 12.158 2.75659 13.538 3.73659C14.918 4.69659 15.608 6.00659 15.608 7.66659C15.608 8.76659 15.308 9.70659 14.708 10.4866C14.128 11.2466 13.278 11.8766 12.158 12.3766C13.518 12.8566 14.548 13.5266 15.248 14.3866C15.948 15.2266 16.298 16.2666 16.298 17.5066C16.298 19.4066 15.548 20.9266 14.048 22.0666C12.548 23.1866 10.368 23.7466 7.50805 23.7466ZM4.29805 11.5666H7.59805C9.17805 11.5666 10.428 11.2366 11.348 10.5766C12.288 9.91659 12.758 9.06659 12.758 8.02659C12.758 6.90659 12.298 6.05659 11.378 5.47659C10.458 4.87659 9.19805 4.57659 7.59805 4.57659C6.93805 4.57659 6.33805 4.59659 5.79805 4.63659C5.25805 4.65659 4.75805 4.68659 4.29805 4.72659V11.5666ZM7.71805 21.3766C9.49805 21.3766 10.888 21.0566 11.888 20.4166C12.888 19.7766 13.388 18.8466 13.388 17.6266C13.388 16.4266 12.898 15.4866 11.918 14.8066C10.938 14.1266 9.53805 13.7866 7.71805 13.7866H4.29805V21.1966C5.35805 21.3166 6.49805 21.3766 7.71805 21.3766ZM20.0445 23.5066V7.90659H22.7445V23.5066H20.0445ZM21.3945 5.23659C20.8745 5.23659 20.4245 5.04659 20.0445 4.66659C19.6845 4.28659 19.5045 3.84659 19.5045 3.34659C19.5045 2.76659 19.6745 2.30659 20.0145 1.96659C20.3545 1.62659 20.8145 1.45659 21.3945 1.45659C21.9145 1.45659 22.3545 1.64659 22.7145 2.02659C23.0945 2.38659 23.2845 2.82659 23.2845 3.34659C23.2845 3.90659 23.1145 4.36659 22.7745 4.72659C22.4345 5.06659 21.9745 5.23659 21.3945 5.23659ZM34.1145 23.8666C32.6345 23.8666 31.3045 23.5266 30.1245 22.8466C28.9445 22.1466 28.0145 21.1866 27.3345 19.9666C26.6745 18.7266 26.3445 17.3066 26.3445 15.7066C26.3445 14.0266 26.6845 12.5766 27.3645 11.3566C28.0445 10.1366 28.9745 9.19659 30.1545 8.53659C31.3345 7.87659 32.6545 7.54659 34.1145 7.54659C35.5745 7.54659 36.8845 7.87659 38.0445 8.53659C39.2245 9.19659 40.1545 10.1366 40.8345 11.3566C41.5345 12.5566 41.8845 13.9866 41.8845 15.6466C41.8845 17.3066 41.5445 18.7566 40.8645 19.9966C40.1845 21.2166 39.2545 22.1666 38.0745 22.8466C36.9145 23.5266 35.5945 23.8666 34.1145 23.8666ZM34.1145 21.4666C35.6945 21.4666 36.9245 20.9366 37.8045 19.8766C38.6845 18.7966 39.1245 17.4066 39.1245 15.7066C39.1245 14.6666 38.9045 13.7166 38.4645 12.8566C38.0245 11.9766 37.4245 11.2766 36.6645 10.7566C35.9245 10.2166 35.0745 9.94659 34.1145 9.94659C32.5345 9.94659 31.3045 10.4666 30.4245 11.5066C29.5445 12.5466 29.1045 13.9266 29.1045 15.6466C29.1045 16.6866 29.3245 17.6566 29.7645 18.5566C30.2045 19.4366 30.7945 20.1466 31.5345 20.6866C32.2945 21.2066 33.1545 21.4666 34.1145 21.4666Z" fill="white"/>
<path d="M4.02805 23.6566L3.97258 24.6551L3.97358 24.6551L4.02805 23.6566ZM1.44805 23.4466H0.448047V24.3294L1.32401 24.4389L1.44805 23.4466ZM1.44805 2.56659L1.3345 1.57306L0.448047 1.67437V2.56659H1.44805ZM4.05805 2.35659L4.00045 1.35825H4.00045L4.05805 2.35659ZM13.538 3.73659L12.959 4.55196L12.967 4.5575L13.538 3.73659ZM14.708 10.4866L13.9154 9.87687L13.9131 9.87992L14.708 10.4866ZM12.158 12.3766L11.7504 11.4635L9.46145 12.4853L11.8252 13.3196L12.158 12.3766ZM15.248 14.3866L14.4724 15.0179L14.4798 15.0268L15.248 14.3866ZM14.048 22.0666L14.6464 22.8679L14.6531 22.8628L14.048 22.0666ZM4.29805 11.5666H3.29805V12.5666H4.29805V11.5666ZM11.348 10.5766L10.7734 9.75814L10.7651 9.76405L11.348 10.5766ZM11.378 5.47659L10.8318 6.3142L10.8382 6.31841L10.8447 6.32252L11.378 5.47659ZM5.79805 4.63659L5.83506 5.63591L5.85351 5.63522L5.87192 5.63386L5.79805 4.63659ZM4.29805 4.72659L4.21142 3.73035L3.29805 3.80977V4.72659H4.29805ZM11.888 20.4166L11.349 19.5743L11.888 20.4166ZM11.918 14.8066L12.4881 13.985L11.918 14.8066ZM4.29805 13.7866V12.7866H3.29805V13.7866H4.29805ZM4.29805 21.1966H3.29805V22.0898L4.18556 22.1902L4.29805 21.1966ZM7.50805 22.7466C6.30431 22.7466 5.16257 22.717 4.08251 22.6581L3.97358 24.6551C5.09352 24.7162 6.27178 24.7466 7.50805 24.7466V22.7466ZM4.08352 22.6581C3.01337 22.5987 2.17923 22.5302 1.57208 22.4543L1.32401 24.4389C1.99686 24.523 2.88273 24.5945 3.97258 24.6551L4.08352 22.6581ZM2.44805 23.4466V2.56659H0.448047V23.4466H2.44805ZM1.56159 3.56012C2.2365 3.48299 3.08642 3.41431 4.11564 3.35493L4.00045 1.35825C2.94968 1.41887 2.05959 1.49019 1.3345 1.57306L1.56159 3.56012ZM4.11564 3.35493C5.13196 3.2963 6.30214 3.26659 7.62805 3.26659V1.26659C6.27395 1.26659 5.06414 1.29688 4.00045 1.35825L4.11564 3.35493ZM7.62805 3.26659C10.0807 3.26659 11.8147 3.7393 12.959 4.55192L14.117 2.92126C12.5013 1.77388 10.2954 1.26659 7.62805 1.26659V3.26659ZM12.967 4.5575C14.0823 5.3334 14.608 6.33888 14.608 7.66659H16.608C16.608 5.6743 15.7538 4.05978 14.1091 2.91569L12.967 4.5575ZM14.608 7.66659C14.608 8.57343 14.3652 9.29222 13.9154 9.87688L15.5007 11.0963C16.2509 10.121 16.608 8.95975 16.608 7.66659H14.608ZM13.9131 9.87992C13.4593 10.4746 12.7598 11.0128 11.7504 11.4635L12.5657 13.2897C13.7963 12.7404 14.7968 12.0186 15.503 11.0933L13.9131 9.87992ZM11.8252 13.3196C13.0629 13.7564 13.9186 14.3374 14.4725 15.0179L16.0236 13.7553C15.1775 12.7158 13.9732 11.9568 12.4909 11.4336L11.8252 13.3196ZM14.4798 15.0268C15.0101 15.6631 15.298 16.4673 15.298 17.5066H17.298C17.298 16.0659 16.886 14.7901 16.0163 13.7464L14.4798 15.0268ZM15.298 17.5066C15.298 19.0972 14.6917 20.3214 13.443 21.2704L14.6531 22.8628C16.4044 21.5318 17.298 19.716 17.298 17.5066H15.298ZM13.4498 21.2653C12.1923 22.2042 10.2597 22.7466 7.50805 22.7466V24.7466C10.4764 24.7466 12.9038 24.169 14.6463 22.8679L13.4498 21.2653ZM4.29805 12.5666H7.59805V10.5666H4.29805V12.5666ZM7.59805 12.5666C9.30679 12.5666 10.7857 12.2107 11.931 11.3891L10.7651 9.76405C10.0704 10.2624 9.0493 10.5666 7.59805 10.5666V12.5666ZM11.9227 11.395C13.0968 10.5706 13.758 9.43017 13.758 8.02659H11.758C11.758 8.70301 11.4793 9.26259 10.7734 9.75818L11.9227 11.395ZM13.758 8.02659C13.758 6.57562 13.1322 5.40034 11.9113 4.63067L10.8447 6.32252C11.4639 6.71284 11.758 7.23756 11.758 8.02659H13.758ZM11.9243 4.63898C10.7835 3.89498 9.30815 3.57659 7.59805 3.57659V5.57659C9.08795 5.57659 10.1326 5.8582 10.8318 6.3142L11.9243 4.63898ZM7.59805 3.57659C6.91851 3.57659 6.29337 3.59716 5.72417 3.63932L5.87192 5.63386C6.38272 5.59602 6.95759 5.57659 7.59805 5.57659V3.57659ZM5.76104 3.63728C5.20718 3.65779 4.69042 3.6887 4.21142 3.73035L4.38468 5.72283C4.82567 5.68448 5.30892 5.65539 5.83506 5.63591L5.76104 3.63728ZM3.29805 4.72659V11.5666H5.29805V4.72659H3.29805ZM7.71805 22.3766C9.59996 22.3766 11.2047 22.0412 12.4271 21.2589L11.349 19.5743C10.5714 20.072 9.39614 20.3766 7.71805 20.3766V22.3766ZM12.4271 21.2589C13.7238 20.429 14.388 19.1762 14.388 17.6266H12.388C12.388 18.517 12.0523 19.1242 11.349 19.5743L12.4271 21.2589ZM14.388 17.6266C14.388 16.1012 13.7394 14.8532 12.4881 13.985L11.348 15.6282C12.0567 16.12 12.388 16.752 12.388 17.6266H14.388ZM12.4881 13.985C11.2739 13.1424 9.64154 12.7866 7.71805 12.7866V14.7866C9.43455 14.7866 10.6022 15.1107 11.348 15.6282L12.4881 13.985ZM7.71805 12.7866H4.29805V14.7866H7.71805V12.7866ZM3.29805 13.7866V21.1966H5.29805V13.7866H3.29805ZM4.18556 22.1902C5.28775 22.315 6.46568 22.3766 7.71805 22.3766V20.3766C6.53042 20.3766 5.42834 20.3182 4.41054 20.2029L4.18556 22.1902ZM20.0445 23.5066H19.0445V24.5066H20.0445V23.5066ZM20.0445 7.90659V6.90659H19.0445V7.90659H20.0445ZM22.7445 7.90659H23.7445V6.90659H22.7445V7.90659ZM22.7445 23.5066V24.5066H23.7445V23.5066H22.7445ZM20.0445 4.66659L19.3186 5.35434L19.3279 5.36414L19.3374 5.3737L20.0445 4.66659ZM20.0145 1.96659L19.3074 1.25948V1.25948L20.0145 1.96659ZM22.7145 2.02659L21.9886 2.71434L22.0072 2.73396L22.0268 2.75254L22.7145 2.02659ZM22.7745 4.72659L23.4816 5.4337L23.4917 5.4236L23.5015 5.41321L22.7745 4.72659ZM21.0445 23.5066V7.90659H19.0445V23.5066H21.0445ZM20.0445 8.90659H22.7445V6.90659H20.0445V8.90659ZM21.7445 7.90659V23.5066H23.7445V7.90659H21.7445ZM22.7445 22.5066H20.0445V24.5066H22.7445V22.5066ZM21.3945 4.23659C21.1495 4.23659 20.9511 4.15896 20.7516 3.95948L19.3374 5.3737C19.8979 5.93422 20.5996 6.23659 21.3945 6.23659V4.23659ZM20.7705 3.97885C20.5773 3.77497 20.5045 3.57777 20.5045 3.34659H18.5045C18.5045 4.11541 18.7917 4.79821 19.3186 5.35434L20.7705 3.97885ZM20.5045 3.34659C20.5045 2.97336 20.6068 2.78852 20.7216 2.6737L19.3074 1.25948C18.7422 1.82466 18.5045 2.55982 18.5045 3.34659H20.5045ZM20.7216 2.6737C20.8365 2.55887 21.0213 2.45659 21.3945 2.45659V0.456592C20.6078 0.456592 19.8726 0.694307 19.3074 1.25948L20.7216 2.6737ZM21.3945 2.45659C21.6379 2.45659 21.816 2.53218 21.9886 2.71434L23.4405 1.33885C22.8931 0.761006 22.1912 0.456592 21.3945 0.456592V2.45659ZM22.0268 2.75254C22.2089 2.92512 22.2845 3.10324 22.2845 3.34659H24.2845C24.2845 2.54994 23.9801 1.84807 23.4023 1.30064L22.0268 2.75254ZM22.2845 3.34659C22.2845 3.68737 22.1889 3.89029 22.0475 4.03997L23.5015 5.41321C24.0402 4.84289 24.2845 4.12581 24.2845 3.34659H22.2845ZM22.0674 4.01948C21.9526 4.13431 21.7678 4.23659 21.3945 4.23659V6.23659C22.1813 6.23659 22.9165 5.99887 23.4816 5.4337L22.0674 4.01948ZM30.1245 22.8466L29.6143 23.7067L29.6252 23.713L30.1245 22.8466ZM27.3345 19.9666L26.4518 20.4364L26.4563 20.445L26.4611 20.4534L27.3345 19.9666ZM27.3645 11.3566L26.4911 10.8697L27.3645 11.3566ZM30.1545 8.53659L30.6427 9.40935L30.1545 8.53659ZM38.0445 8.53659L37.55 9.40578L37.5564 9.40935L38.0445 8.53659ZM40.8345 11.3566L39.9611 11.8434L39.9658 11.852L39.9708 11.8605L40.8345 11.3566ZM40.8645 19.9966L41.738 20.4835L41.7413 20.4774L40.8645 19.9966ZM38.0745 22.8466L37.5752 21.9801L37.5688 21.9839L38.0745 22.8466ZM37.8045 19.8766L38.574 20.5154L38.5798 20.5083L37.8045 19.8766ZM38.4645 12.8566L37.5701 13.3038L37.5743 13.3121L38.4645 12.8566ZM36.6645 10.7566L36.0751 11.5644L36.0873 11.5733L36.0998 11.5819L36.6645 10.7566ZM30.4245 11.5066L31.1879 12.1525L30.4245 11.5066ZM29.7645 18.5566L28.8661 18.9958L28.8701 19.0038L29.7645 18.5566ZM31.5345 20.6866L30.9451 21.4944L30.9573 21.5033L30.9698 21.5119L31.5345 20.6866ZM34.1145 22.8666C32.7941 22.8666 31.639 22.5652 30.6238 21.9802L29.6252 23.713C30.9701 24.488 32.4749 24.8666 34.1145 24.8666V22.8666ZM30.6347 21.9865C29.6095 21.3784 28.8036 20.5483 28.208 19.4797L26.4611 20.4534C27.2254 21.8248 28.2796 22.9148 29.6143 23.7066L30.6347 21.9865ZM28.2173 19.4967C27.6444 18.4204 27.3445 17.1657 27.3445 15.7066H25.3445C25.3445 17.4474 25.7047 19.0328 26.4518 20.4364L28.2173 19.4967ZM27.3445 15.7066C27.3445 14.1625 27.6563 12.8871 28.238 11.8434L26.4911 10.8697C25.7128 12.266 25.3445 13.8906 25.3445 15.7066H27.3445ZM28.238 11.8434C28.8309 10.7797 29.6299 9.97581 30.6427 9.40935L29.6664 7.66383C28.3191 8.41737 27.2581 9.49351 26.4911 10.8697L28.238 11.8434ZM30.6427 9.40935C31.6617 8.83939 32.8114 8.54659 34.1145 8.54659V6.54659C32.4977 6.54659 31.0074 6.9138 29.6664 7.66383L30.6427 9.40935ZM34.1145 8.54659C35.4179 8.54659 36.5546 8.83942 37.55 9.40576L38.5391 7.66743C37.2144 6.91376 35.7312 6.54659 34.1145 6.54659V8.54659ZM37.5564 9.40935C38.5691 9.97581 39.3681 10.7797 39.9611 11.8434L41.708 10.8697C40.9409 9.49351 39.8799 8.41737 38.5327 7.66383L37.5564 9.40935ZM39.9708 11.8605C40.5656 12.8802 40.8845 14.129 40.8845 15.6466H42.8845C42.8845 13.8442 42.5035 12.233 41.6983 10.8527L39.9708 11.8605ZM40.8845 15.6466C40.8845 17.1678 40.5739 18.4469 39.9877 19.5158L41.7413 20.4774C42.5152 19.0663 42.8845 17.4454 42.8845 15.6466H40.8845ZM39.9911 19.5097C39.3968 20.5759 38.5943 21.3929 37.5752 21.9802L38.5738 23.713C39.9148 22.9403 40.9723 21.8573 41.738 20.4834L39.9911 19.5097ZM37.5688 21.9839C36.5773 22.5651 35.4352 22.8666 34.1145 22.8666V24.8666C35.7539 24.8666 37.2517 24.4881 38.5802 23.7093L37.5688 21.9839ZM34.1145 22.4666C35.9431 22.4666 37.4748 21.8393 38.5739 20.5153L37.0351 19.2378C36.3743 20.0339 35.446 20.4666 34.1145 20.4666V22.4666ZM38.5798 20.5083C39.6351 19.2131 40.1245 17.5843 40.1245 15.7066H38.1245C38.1245 17.2288 37.7339 18.3801 37.0293 19.2449L38.5798 20.5083ZM40.1245 15.7066C40.1245 14.5206 39.8724 13.4128 39.3548 12.4011L37.5743 13.3121C37.9367 14.0204 38.1245 14.8126 38.1245 15.7066H40.1245ZM39.359 12.4094C38.8483 11.3881 38.1391 10.5538 37.2292 9.93128L36.0998 11.5819C36.71 11.9994 37.2007 12.5651 37.5701 13.3038L39.359 12.4094ZM37.254 9.9488C36.3343 9.27766 35.2756 8.94659 34.1145 8.94659V10.9466C34.8735 10.9466 35.5148 11.1555 36.0751 11.5644L37.254 9.9488ZM34.1145 8.94659C32.2926 8.94659 30.7625 9.55905 29.6611 10.8606L31.1879 12.1525C31.8466 11.3741 32.7764 10.9466 34.1145 10.9466V8.94659ZM29.6611 10.8606C28.5917 12.1246 28.1045 13.7539 28.1045 15.6466H30.1045C30.1045 14.0993 30.4974 12.9686 31.1879 12.1525L29.6611 10.8606ZM28.1045 15.6466C28.1045 16.8328 28.3567 17.9538 28.8661 18.9958L30.6629 18.1174C30.2924 17.3594 30.1045 16.5403 30.1045 15.6466H28.1045ZM28.8701 19.0038C29.3761 20.0158 30.0666 20.8534 30.9451 21.4944L32.124 19.8788C31.5224 19.4398 31.033 18.8574 30.659 18.1094L28.8701 19.0038ZM30.9698 21.5119C31.9035 22.1507 32.9621 22.4666 34.1145 22.4666V20.4666C33.347 20.4666 32.6856 20.2625 32.0992 19.8613L30.9698 21.5119Z" fill="black" mask="url(#path-1-outside-1_345_4488)"/>
</svg>
