<svg width="834" height="136" viewBox="0 0 834 136" fill="none" xmlns="http://www.w3.org/2000/svg">
<path d="M3.444 134.144C2.996 134.144 2.596 134.08 2.244 133.952C1.892 133.816 1.592 133.588 1.344 133.268C1.096 132.94 0.908 132.504 0.78 131.96C0.652 131.408 0.588 130.716 0.588 129.884C0.588 129.052 0.652 128.364 0.78 127.82C0.908 127.268 1.096 126.832 1.344 126.512C1.592 126.184 1.892 125.956 2.244 125.828C2.596 125.692 2.996 125.624 3.444 125.624C3.892 125.624 4.288 125.692 4.632 125.828C4.984 125.956 5.284 126.184 5.532 126.512C5.78 126.832 5.968 127.268 6.096 127.82C6.224 128.364 6.288 129.052 6.288 129.884C6.288 130.716 6.224 131.408 6.096 131.96C5.968 132.504 5.78 132.94 5.532 133.268C5.284 133.588 4.984 133.816 4.632 133.952C4.288 134.08 3.892 134.144 3.444 134.144ZM3.444 133.256C3.9 133.256 4.252 133.14 4.5 132.908C4.756 132.676 4.932 132.332 5.028 131.876C5.132 131.42 5.184 130.852 5.184 130.172V129.62C5.184 128.932 5.132 128.36 5.028 127.904C4.932 127.44 4.756 127.092 4.5 126.86C4.252 126.628 3.9 126.512 3.444 126.512C2.988 126.512 2.632 126.628 2.376 126.86C2.12 127.092 1.94 127.436 1.836 127.892C1.74 128.348 1.692 128.92 1.692 129.608V130.148C1.692 130.828 1.74 131.4 1.836 131.864C1.94 132.328 2.12 132.676 2.376 132.908C2.632 133.14 2.988 133.256 3.444 133.256Z" fill="#A7A7A9"/>
<path d="M64.5523 134.144C63.9763 134.144 63.4723 134.036 63.0403 133.82C62.6083 133.604 62.2723 133.296 62.0323 132.896C61.7923 132.488 61.6723 132.004 61.6723 131.444H62.7403C62.7403 131.82 62.8203 132.144 62.9803 132.416C63.1403 132.688 63.3563 132.896 63.6283 133.04C63.9083 133.184 64.2163 133.256 64.5523 133.256C64.8963 133.256 65.2003 133.188 65.4643 133.052C65.7283 132.908 65.9323 132.692 66.0763 132.404C66.2283 132.116 66.3043 131.752 66.3043 131.312C66.3043 130.912 66.2363 130.584 66.1003 130.328C65.9643 130.064 65.7683 129.868 65.5123 129.74C65.2643 129.612 64.9763 129.548 64.6483 129.548C64.4083 129.548 64.1803 129.588 63.9643 129.668C63.7483 129.74 63.5523 129.844 63.3763 129.98C63.2083 130.116 63.0683 130.284 62.9563 130.484L61.9603 130.328L62.3083 125.768H66.9763V126.752H63.2323L63.0403 129.32C63.1763 129.2 63.3283 129.092 63.4963 128.996C63.6723 128.892 63.8723 128.812 64.0963 128.756C64.3203 128.692 64.5763 128.66 64.8643 128.66C65.3363 128.66 65.7643 128.752 66.1483 128.936C66.5323 129.12 66.8363 129.404 67.0603 129.788C67.2843 130.172 67.3963 130.668 67.3963 131.276C67.3963 131.876 67.2803 132.392 67.0483 132.824C66.8243 133.256 66.5003 133.584 66.0763 133.808C65.6523 134.032 65.1443 134.144 64.5523 134.144Z" fill="#A7A7A9"/>
<path d="M123.236 134V133.1H125.312V127.4H123.224V126.728C123.52 126.704 123.824 126.66 124.136 126.596C124.456 126.532 124.768 126.432 125.072 126.296C125.376 126.152 125.652 125.968 125.9 125.744H126.38V133.1H128.336V134H123.236ZM132.133 134.144C131.685 134.144 131.285 134.08 130.933 133.952C130.581 133.816 130.281 133.588 130.033 133.268C129.785 132.94 129.597 132.504 129.469 131.96C129.341 131.408 129.277 130.716 129.277 129.884C129.277 129.052 129.341 128.364 129.469 127.82C129.597 127.268 129.785 126.832 130.033 126.512C130.281 126.184 130.581 125.956 130.933 125.828C131.285 125.692 131.685 125.624 132.133 125.624C132.581 125.624 132.977 125.692 133.321 125.828C133.673 125.956 133.973 126.184 134.221 126.512C134.469 126.832 134.657 127.268 134.785 127.82C134.913 128.364 134.977 129.052 134.977 129.884C134.977 130.716 134.913 131.408 134.785 131.96C134.657 132.504 134.469 132.94 134.221 133.268C133.973 133.588 133.673 133.816 133.321 133.952C132.977 134.08 132.581 134.144 132.133 134.144ZM132.133 133.256C132.589 133.256 132.941 133.14 133.189 132.908C133.445 132.676 133.621 132.332 133.717 131.876C133.821 131.42 133.873 130.852 133.873 130.172V129.62C133.873 128.932 133.821 128.36 133.717 127.904C133.621 127.44 133.445 127.092 133.189 126.86C132.941 126.628 132.589 126.512 132.133 126.512C131.677 126.512 131.321 126.628 131.065 126.86C130.809 127.092 130.629 127.436 130.525 127.892C130.429 128.348 130.381 128.92 130.381 129.608V130.148C130.381 130.828 130.429 131.4 130.525 131.864C130.629 132.328 130.809 132.676 131.065 132.908C131.321 133.14 131.677 133.256 132.133 133.256Z" fill="#A7A7A9"/>
<path d="M185.756 134V133.652C185.756 133.316 185.82 133.008 185.948 132.728C186.084 132.44 186.26 132.18 186.476 131.948C186.7 131.708 186.952 131.48 187.232 131.264C187.512 131.048 187.796 130.836 188.084 130.628C188.476 130.356 188.836 130.084 189.164 129.812C189.5 129.54 189.768 129.248 189.968 128.936C190.168 128.616 190.268 128.26 190.268 127.868C190.268 127.62 190.208 127.396 190.088 127.196C189.976 126.988 189.804 126.824 189.572 126.704C189.34 126.584 189.044 126.524 188.684 126.524C188.26 126.524 187.92 126.596 187.664 126.74C187.408 126.884 187.22 127.076 187.1 127.316C186.988 127.556 186.932 127.82 186.932 128.108V128.6H185.888C185.88 128.56 185.872 128.5 185.864 128.42C185.856 128.332 185.852 128.232 185.852 128.12C185.852 127.528 185.984 127.052 186.248 126.692C186.512 126.324 186.864 126.056 187.304 125.888C187.744 125.712 188.22 125.624 188.732 125.624C189.188 125.624 189.58 125.688 189.908 125.816C190.236 125.936 190.508 126.104 190.724 126.32C190.94 126.536 191.1 126.784 191.204 127.064C191.308 127.336 191.36 127.624 191.36 127.928C191.36 128.304 191.292 128.648 191.156 128.96C191.028 129.272 190.844 129.564 190.604 129.836C190.372 130.1 190.096 130.356 189.776 130.604C189.464 130.852 189.124 131.104 188.756 131.36C188.5 131.528 188.248 131.708 188 131.9C187.752 132.084 187.54 132.272 187.364 132.464C187.188 132.656 187.076 132.84 187.028 133.016H191.408V134H185.756ZM195.409 134.144C194.961 134.144 194.561 134.08 194.209 133.952C193.857 133.816 193.557 133.588 193.309 133.268C193.061 132.94 192.873 132.504 192.745 131.96C192.617 131.408 192.553 130.716 192.553 129.884C192.553 129.052 192.617 128.364 192.745 127.82C192.873 127.268 193.061 126.832 193.309 126.512C193.557 126.184 193.857 125.956 194.209 125.828C194.561 125.692 194.961 125.624 195.409 125.624C195.857 125.624 196.253 125.692 196.597 125.828C196.949 125.956 197.249 126.184 197.497 126.512C197.745 126.832 197.933 127.268 198.061 127.82C198.189 128.364 198.253 129.052 198.253 129.884C198.253 130.716 198.189 131.408 198.061 131.96C197.933 132.504 197.745 132.94 197.497 133.268C197.249 133.588 196.949 133.816 196.597 133.952C196.253 134.08 195.857 134.144 195.409 134.144ZM195.409 133.256C195.865 133.256 196.217 133.14 196.465 132.908C196.721 132.676 196.897 132.332 196.993 131.876C197.097 131.42 197.149 130.852 197.149 130.172V129.62C197.149 128.932 197.097 128.36 196.993 127.904C196.897 127.44 196.721 127.092 196.465 126.86C196.217 126.628 195.865 126.512 195.409 126.512C194.953 126.512 194.597 126.628 194.341 126.86C194.085 127.092 193.905 127.436 193.801 127.892C193.705 128.348 193.657 128.92 193.657 129.608V130.148C193.657 130.828 193.705 131.4 193.801 131.864C193.905 132.328 194.085 132.676 194.341 132.908C194.597 133.14 194.953 133.256 195.409 133.256Z" fill="#A7A7A9"/>
<path d="M252.577 134.144C251.937 134.144 251.397 134.048 250.957 133.856C250.517 133.656 250.185 133.376 249.961 133.016C249.737 132.656 249.625 132.228 249.625 131.732V131.576H250.693V131.732C250.693 132.228 250.849 132.608 251.161 132.872C251.481 133.128 251.921 133.256 252.481 133.256C253.041 133.256 253.493 133.136 253.837 132.896C254.181 132.648 254.353 132.256 254.353 131.72C254.353 131.328 254.261 131.028 254.077 130.82C253.893 130.612 253.653 130.468 253.357 130.388C253.069 130.3 252.761 130.256 252.433 130.256H251.569V129.368H252.469C252.773 129.368 253.053 129.32 253.309 129.224C253.565 129.128 253.769 128.972 253.921 128.756C254.081 128.532 254.161 128.244 254.161 127.892C254.161 127.572 254.089 127.312 253.945 127.112C253.809 126.912 253.621 126.764 253.381 126.668C253.141 126.564 252.877 126.512 252.589 126.512C252.269 126.512 251.981 126.568 251.725 126.68C251.469 126.784 251.265 126.944 251.113 127.16C250.969 127.376 250.897 127.648 250.897 127.976V128.132H249.817V127.916C249.817 127.46 249.933 127.06 250.165 126.716C250.405 126.372 250.729 126.104 251.137 125.912C251.553 125.72 252.029 125.624 252.565 125.624C253.093 125.624 253.557 125.708 253.957 125.876C254.365 126.044 254.685 126.292 254.917 126.62C255.149 126.948 255.265 127.352 255.265 127.832C255.265 128.184 255.201 128.484 255.073 128.732C254.945 128.972 254.777 129.172 254.569 129.332C254.361 129.492 254.137 129.624 253.897 129.728V129.776C254.337 129.904 254.705 130.136 255.001 130.472C255.297 130.808 255.445 131.248 255.445 131.792C255.445 132.28 255.321 132.7 255.073 133.052C254.833 133.404 254.493 133.676 254.053 133.868C253.621 134.052 253.129 134.144 252.577 134.144ZM259.444 134.144C258.996 134.144 258.596 134.08 258.244 133.952C257.892 133.816 257.592 133.588 257.344 133.268C257.096 132.94 256.908 132.504 256.78 131.96C256.652 131.408 256.588 130.716 256.588 129.884C256.588 129.052 256.652 128.364 256.78 127.82C256.908 127.268 257.096 126.832 257.344 126.512C257.592 126.184 257.892 125.956 258.244 125.828C258.596 125.692 258.996 125.624 259.444 125.624C259.892 125.624 260.288 125.692 260.632 125.828C260.984 125.956 261.284 126.184 261.532 126.512C261.78 126.832 261.968 127.268 262.096 127.82C262.224 128.364 262.288 129.052 262.288 129.884C262.288 130.716 262.224 131.408 262.096 131.96C261.968 132.504 261.78 132.94 261.532 133.268C261.284 133.588 260.984 133.816 260.632 133.952C260.288 134.08 259.892 134.144 259.444 134.144ZM259.444 133.256C259.9 133.256 260.252 133.14 260.5 132.908C260.756 132.676 260.932 132.332 261.028 131.876C261.132 131.42 261.184 130.852 261.184 130.172V129.62C261.184 128.932 261.132 128.36 261.028 127.904C260.932 127.44 260.756 127.092 260.5 126.86C260.252 126.628 259.9 126.512 259.444 126.512C258.988 126.512 258.632 126.628 258.376 126.86C258.12 127.092 257.94 127.436 257.836 127.892C257.74 128.348 257.692 128.92 257.692 129.608V130.148C257.692 130.828 257.74 131.4 257.836 131.864C257.94 132.328 258.12 132.676 258.376 132.908C258.632 133.14 258.988 133.256 259.444 133.256Z" fill="#A7A7A9"/>
<path d="M318.396 134V131.984H314.568V131.096C314.904 130.52 315.208 129.94 315.48 129.356C315.76 128.772 316.008 128.172 316.224 127.556C316.448 126.94 316.632 126.296 316.776 125.624H317.904C317.8 126.064 317.672 126.516 317.52 126.98C317.368 127.436 317.2 127.88 317.016 128.312C316.832 128.744 316.648 129.148 316.464 129.524C316.288 129.9 316.12 130.224 315.96 130.496C315.808 130.768 315.684 130.968 315.588 131.096H318.396V128.48C318.444 128.352 318.492 128.22 318.54 128.084C318.596 127.94 318.648 127.796 318.696 127.652C318.744 127.5 318.788 127.36 318.828 127.232C318.868 127.096 318.9 126.968 318.924 126.848H319.452V131.096H320.544V131.984H319.452V134H318.396ZM324.333 134.144C323.885 134.144 323.485 134.08 323.133 133.952C322.781 133.816 322.481 133.588 322.233 133.268C321.985 132.94 321.797 132.504 321.669 131.96C321.541 131.408 321.477 130.716 321.477 129.884C321.477 129.052 321.541 128.364 321.669 127.82C321.797 127.268 321.985 126.832 322.233 126.512C322.481 126.184 322.781 125.956 323.133 125.828C323.485 125.692 323.885 125.624 324.333 125.624C324.781 125.624 325.177 125.692 325.521 125.828C325.873 125.956 326.173 126.184 326.421 126.512C326.669 126.832 326.857 127.268 326.985 127.82C327.113 128.364 327.177 129.052 327.177 129.884C327.177 130.716 327.113 131.408 326.985 131.96C326.857 132.504 326.669 132.94 326.421 133.268C326.173 133.588 325.873 133.816 325.521 133.952C325.177 134.08 324.781 134.144 324.333 134.144ZM324.333 133.256C324.789 133.256 325.141 133.14 325.389 132.908C325.645 132.676 325.821 132.332 325.917 131.876C326.021 131.42 326.073 130.852 326.073 130.172V129.62C326.073 128.932 326.021 128.36 325.917 127.904C325.821 127.44 325.645 127.092 325.389 126.86C325.141 126.628 324.789 126.512 324.333 126.512C323.877 126.512 323.521 126.628 323.265 126.86C323.009 127.092 322.829 127.436 322.725 127.892C322.629 128.348 322.581 128.92 322.581 129.608V130.148C322.581 130.828 322.629 131.4 322.725 131.864C322.829 132.328 323.009 132.676 323.265 132.908C323.521 133.14 323.877 133.256 324.333 133.256Z" fill="#A7A7A9"/>
<path d="M381.613 134.144C381.037 134.144 380.533 134.036 380.101 133.82C379.669 133.604 379.333 133.296 379.093 132.896C378.853 132.488 378.733 132.004 378.733 131.444H379.801C379.801 131.82 379.881 132.144 380.041 132.416C380.201 132.688 380.417 132.896 380.689 133.04C380.969 133.184 381.277 133.256 381.613 133.256C381.957 133.256 382.261 133.188 382.525 133.052C382.789 132.908 382.993 132.692 383.137 132.404C383.289 132.116 383.365 131.752 383.365 131.312C383.365 130.912 383.297 130.584 383.161 130.328C383.025 130.064 382.829 129.868 382.573 129.74C382.325 129.612 382.037 129.548 381.709 129.548C381.469 129.548 381.241 129.588 381.025 129.668C380.809 129.74 380.613 129.844 380.437 129.98C380.269 130.116 380.129 130.284 380.017 130.484L379.021 130.328L379.369 125.768H384.037V126.752H380.293L380.101 129.32C380.237 129.2 380.389 129.092 380.557 128.996C380.733 128.892 380.933 128.812 381.157 128.756C381.381 128.692 381.637 128.66 381.925 128.66C382.397 128.66 382.825 128.752 383.209 128.936C383.593 129.12 383.897 129.404 384.121 129.788C384.345 130.172 384.457 130.668 384.457 131.276C384.457 131.876 384.341 132.392 384.109 132.824C383.885 133.256 383.561 133.584 383.137 133.808C382.713 134.032 382.205 134.144 381.613 134.144ZM388.432 134.144C387.984 134.144 387.584 134.08 387.232 133.952C386.88 133.816 386.58 133.588 386.332 133.268C386.084 132.94 385.896 132.504 385.768 131.96C385.64 131.408 385.576 130.716 385.576 129.884C385.576 129.052 385.64 128.364 385.768 127.82C385.896 127.268 386.084 126.832 386.332 126.512C386.58 126.184 386.88 125.956 387.232 125.828C387.584 125.692 387.984 125.624 388.432 125.624C388.88 125.624 389.276 125.692 389.62 125.828C389.972 125.956 390.272 126.184 390.52 126.512C390.768 126.832 390.956 127.268 391.084 127.82C391.212 128.364 391.276 129.052 391.276 129.884C391.276 130.716 391.212 131.408 391.084 131.96C390.956 132.504 390.768 132.94 390.52 133.268C390.272 133.588 389.972 133.816 389.62 133.952C389.276 134.08 388.88 134.144 388.432 134.144ZM388.432 133.256C388.888 133.256 389.24 133.14 389.488 132.908C389.744 132.676 389.92 132.332 390.016 131.876C390.12 131.42 390.172 130.852 390.172 130.172V129.62C390.172 128.932 390.12 128.36 390.016 127.904C389.92 127.44 389.744 127.092 389.488 126.86C389.24 126.628 388.888 126.512 388.432 126.512C387.976 126.512 387.62 126.628 387.364 126.86C387.108 127.092 386.928 127.436 386.824 127.892C386.728 128.348 386.68 128.92 386.68 129.608V130.148C386.68 130.828 386.728 131.4 386.824 131.864C386.928 132.328 387.108 132.676 387.364 132.908C387.62 133.14 387.976 133.256 388.432 133.256Z" fill="#A7A7A9"/>
<path d="M445.721 134.144C445.249 134.144 444.825 134.076 444.449 133.94C444.081 133.804 443.765 133.584 443.501 133.28C443.245 132.976 443.049 132.568 442.913 132.056C442.777 131.536 442.709 130.892 442.709 130.124C442.709 129.276 442.777 128.568 442.913 128C443.049 127.424 443.241 126.964 443.489 126.62C443.745 126.268 444.057 126.016 444.425 125.864C444.801 125.704 445.225 125.624 445.697 125.624C446.289 125.624 446.765 125.736 447.125 125.96C447.493 126.184 447.761 126.488 447.929 126.872C448.097 127.248 448.181 127.68 448.181 128.168H447.101C447.101 127.8 447.049 127.492 446.945 127.244C446.841 126.996 446.677 126.812 446.453 126.692C446.237 126.572 445.965 126.512 445.637 126.512C445.157 126.512 444.781 126.64 444.509 126.896C444.245 127.144 444.061 127.508 443.957 127.988C443.861 128.468 443.809 129.04 443.801 129.704C443.913 129.52 444.069 129.352 444.269 129.2C444.477 129.048 444.721 128.928 445.001 128.84C445.281 128.744 445.577 128.696 445.889 128.696C446.481 128.696 446.969 128.816 447.353 129.056C447.737 129.288 448.021 129.608 448.205 130.016C448.389 130.424 448.481 130.88 448.481 131.384C448.481 131.936 448.361 132.42 448.121 132.836C447.881 133.252 447.553 133.576 447.137 133.808C446.721 134.032 446.249 134.144 445.721 134.144ZM445.649 133.256C446.041 133.256 446.365 133.172 446.621 133.004C446.877 132.828 447.065 132.6 447.185 132.32C447.313 132.032 447.377 131.716 447.377 131.372C447.377 131.044 447.317 130.744 447.197 130.472C447.077 130.2 446.889 129.984 446.633 129.824C446.385 129.656 446.065 129.572 445.673 129.572C445.281 129.572 444.953 129.656 444.689 129.824C444.425 129.992 444.229 130.216 444.101 130.496C443.973 130.768 443.909 131.08 443.909 131.432C443.909 131.76 443.973 132.064 444.101 132.344C444.229 132.624 444.421 132.848 444.677 133.016C444.933 133.176 445.257 133.256 445.649 133.256ZM452.444 134.144C451.996 134.144 451.596 134.08 451.244 133.952C450.892 133.816 450.592 133.588 450.344 133.268C450.096 132.94 449.908 132.504 449.78 131.96C449.652 131.408 449.588 130.716 449.588 129.884C449.588 129.052 449.652 128.364 449.78 127.82C449.908 127.268 450.096 126.832 450.344 126.512C450.592 126.184 450.892 125.956 451.244 125.828C451.596 125.692 451.996 125.624 452.444 125.624C452.892 125.624 453.288 125.692 453.632 125.828C453.984 125.956 454.284 126.184 454.532 126.512C454.78 126.832 454.968 127.268 455.096 127.82C455.224 128.364 455.288 129.052 455.288 129.884C455.288 130.716 455.224 131.408 455.096 131.96C454.968 132.504 454.78 132.94 454.532 133.268C454.284 133.588 453.984 133.816 453.632 133.952C453.288 134.08 452.892 134.144 452.444 134.144ZM452.444 133.256C452.9 133.256 453.252 133.14 453.5 132.908C453.756 132.676 453.932 132.332 454.028 131.876C454.132 131.42 454.184 130.852 454.184 130.172V129.62C454.184 128.932 454.132 128.36 454.028 127.904C453.932 127.44 453.756 127.092 453.5 126.86C453.252 126.628 452.9 126.512 452.444 126.512C451.988 126.512 451.632 126.628 451.376 126.86C451.12 127.092 450.94 127.436 450.836 127.892C450.74 128.348 450.692 128.92 450.692 129.608V130.148C450.692 130.828 450.74 131.4 450.836 131.864C450.94 132.328 451.12 132.676 451.376 132.908C451.632 133.14 451.988 133.256 452.444 133.256Z" fill="#A7A7A9"/>
<path d="M506.984 134C506.984 133.256 507.08 132.54 507.272 131.852C507.464 131.164 507.712 130.512 508.016 129.896C508.328 129.28 508.668 128.708 509.036 128.18C509.404 127.652 509.764 127.176 510.116 126.752H505.712V125.768H511.508V126.428C511.212 126.772 510.904 127.156 510.584 127.58C510.272 127.996 509.972 128.44 509.684 128.912C509.396 129.376 509.136 129.86 508.904 130.364C508.672 130.868 508.488 131.38 508.352 131.9C508.216 132.412 508.148 132.924 508.148 133.436V134H506.984ZM515.321 134.144C514.873 134.144 514.473 134.08 514.121 133.952C513.769 133.816 513.469 133.588 513.221 133.268C512.973 132.94 512.785 132.504 512.657 131.96C512.529 131.408 512.465 130.716 512.465 129.884C512.465 129.052 512.529 128.364 512.657 127.82C512.785 127.268 512.973 126.832 513.221 126.512C513.469 126.184 513.769 125.956 514.121 125.828C514.473 125.692 514.873 125.624 515.321 125.624C515.769 125.624 516.165 125.692 516.509 125.828C516.861 125.956 517.161 126.184 517.409 126.512C517.657 126.832 517.845 127.268 517.973 127.82C518.101 128.364 518.165 129.052 518.165 129.884C518.165 130.716 518.101 131.408 517.973 131.96C517.845 132.504 517.657 132.94 517.409 133.268C517.161 133.588 516.861 133.816 516.509 133.952C516.165 134.08 515.769 134.144 515.321 134.144ZM515.321 133.256C515.777 133.256 516.129 133.14 516.377 132.908C516.633 132.676 516.809 132.332 516.905 131.876C517.009 131.42 517.061 130.852 517.061 130.172V129.62C517.061 128.932 517.009 128.36 516.905 127.904C516.809 127.44 516.633 127.092 516.377 126.86C516.129 126.628 515.777 126.512 515.321 126.512C514.865 126.512 514.509 126.628 514.253 126.86C513.997 127.092 513.817 127.436 513.713 127.892C513.617 128.348 513.569 128.92 513.569 129.608V130.148C513.569 130.828 513.617 131.4 513.713 131.864C513.817 132.328 513.997 132.676 514.253 132.908C514.509 133.14 514.865 133.256 515.321 133.256Z" fill="#A7A7A9"/>
<path d="M573.559 134.144C572.879 134.144 572.327 134.036 571.903 133.82C571.479 133.604 571.167 133.316 570.967 132.956C570.775 132.596 570.679 132.196 570.679 131.756C570.679 131.308 570.791 130.912 571.015 130.568C571.239 130.224 571.591 129.96 572.071 129.776C571.687 129.576 571.395 129.312 571.195 128.984C571.003 128.656 570.907 128.292 570.907 127.892C570.907 127.468 571.003 127.088 571.195 126.752C571.395 126.408 571.691 126.136 572.083 125.936C572.483 125.728 572.975 125.624 573.559 125.624C574.143 125.624 574.631 125.728 575.023 125.936C575.415 126.136 575.711 126.408 575.911 126.752C576.111 127.088 576.211 127.468 576.211 127.892C576.211 128.292 576.111 128.656 575.911 128.984C575.711 129.312 575.419 129.576 575.035 129.776C575.523 129.96 575.875 130.224 576.091 130.568C576.315 130.912 576.427 131.308 576.427 131.756C576.427 132.196 576.327 132.596 576.127 132.956C575.935 133.316 575.627 133.604 575.203 133.82C574.787 134.036 574.239 134.144 573.559 134.144ZM573.559 133.268C574.143 133.268 574.583 133.132 574.879 132.86C575.175 132.588 575.323 132.216 575.323 131.744C575.323 131.28 575.175 130.912 574.879 130.64C574.583 130.368 574.143 130.232 573.559 130.232C572.975 130.232 572.531 130.368 572.227 130.64C571.931 130.912 571.783 131.28 571.783 131.744C571.783 132.216 571.931 132.588 572.227 132.86C572.531 133.132 572.975 133.268 573.559 133.268ZM573.559 129.356C574.047 129.356 574.431 129.232 574.711 128.984C574.991 128.728 575.131 128.372 575.131 127.916C575.131 127.468 574.991 127.12 574.711 126.872C574.431 126.624 574.047 126.5 573.559 126.5C573.071 126.5 572.687 126.624 572.407 126.872C572.127 127.12 571.987 127.468 571.987 127.916C571.987 128.372 572.127 128.728 572.407 128.984C572.687 129.232 573.071 129.356 573.559 129.356ZM580.45 134.144C580.002 134.144 579.602 134.08 579.25 133.952C578.898 133.816 578.598 133.588 578.35 133.268C578.102 132.94 577.914 132.504 577.786 131.96C577.658 131.408 577.594 130.716 577.594 129.884C577.594 129.052 577.658 128.364 577.786 127.82C577.914 127.268 578.102 126.832 578.35 126.512C578.598 126.184 578.898 125.956 579.25 125.828C579.602 125.692 580.002 125.624 580.45 125.624C580.898 125.624 581.294 125.692 581.638 125.828C581.99 125.956 582.29 126.184 582.538 126.512C582.786 126.832 582.974 127.268 583.102 127.82C583.23 128.364 583.294 129.052 583.294 129.884C583.294 130.716 583.23 131.408 583.102 131.96C582.974 132.504 582.786 132.94 582.538 133.268C582.29 133.588 581.99 133.816 581.638 133.952C581.294 134.08 580.898 134.144 580.45 134.144ZM580.45 133.256C580.906 133.256 581.258 133.14 581.506 132.908C581.762 132.676 581.938 132.332 582.034 131.876C582.138 131.42 582.19 130.852 582.19 130.172V129.62C582.19 128.932 582.138 128.36 582.034 127.904C581.938 127.44 581.762 127.092 581.506 126.86C581.258 126.628 580.906 126.512 580.45 126.512C579.994 126.512 579.638 126.628 579.382 126.86C579.126 127.092 578.946 127.436 578.842 127.892C578.746 128.348 578.698 128.92 578.698 129.608V130.148C578.698 130.828 578.746 131.4 578.842 131.864C578.946 132.328 579.126 132.676 579.382 132.908C579.638 133.14 579.994 133.256 580.45 133.256Z" fill="#A7A7A9"/>
<path d="M637.421 134.144C636.837 134.144 636.361 134.032 635.993 133.808C635.625 133.584 635.357 133.28 635.189 132.896C635.021 132.512 634.937 132.08 634.937 131.6H636.017C636.017 131.968 636.069 132.276 636.173 132.524C636.285 132.772 636.449 132.956 636.665 133.076C636.881 133.196 637.153 133.256 637.481 133.256C637.969 133.256 638.341 133.132 638.597 132.884C638.861 132.628 639.045 132.26 639.149 131.78C639.253 131.3 639.309 130.728 639.317 130.064C639.213 130.24 639.057 130.408 638.849 130.568C638.641 130.72 638.397 130.844 638.117 130.94C637.845 131.028 637.553 131.072 637.241 131.072C636.649 131.072 636.161 130.956 635.777 130.724C635.393 130.484 635.105 130.16 634.913 129.752C634.729 129.344 634.637 128.888 634.637 128.384C634.637 127.824 634.757 127.34 634.997 126.932C635.237 126.516 635.565 126.196 635.981 125.972C636.397 125.74 636.865 125.624 637.385 125.624C637.857 125.624 638.281 125.692 638.657 125.828C639.033 125.964 639.349 126.184 639.605 126.488C639.869 126.792 640.069 127.204 640.205 127.724C640.341 128.236 640.409 128.876 640.409 129.644C640.409 130.484 640.341 131.192 640.205 131.768C640.077 132.344 639.885 132.808 639.629 133.16C639.373 133.504 639.057 133.756 638.681 133.916C638.313 134.068 637.893 134.144 637.421 134.144ZM637.457 130.196C637.849 130.196 638.173 130.112 638.429 129.944C638.693 129.776 638.889 129.552 639.017 129.272C639.145 128.992 639.209 128.68 639.209 128.336C639.209 128 639.145 127.696 639.017 127.424C638.897 127.144 638.705 126.924 638.441 126.764C638.185 126.596 637.861 126.512 637.469 126.512C637.077 126.512 636.753 126.6 636.497 126.776C636.241 126.944 636.049 127.168 635.921 127.448C635.801 127.728 635.741 128.044 635.741 128.396C635.741 128.724 635.801 129.024 635.921 129.296C636.041 129.568 636.225 129.788 636.473 129.956C636.729 130.116 637.057 130.196 637.457 130.196ZM644.444 134.144C643.996 134.144 643.596 134.08 643.244 133.952C642.892 133.816 642.592 133.588 642.344 133.268C642.096 132.94 641.908 132.504 641.78 131.96C641.652 131.408 641.588 130.716 641.588 129.884C641.588 129.052 641.652 128.364 641.78 127.82C641.908 127.268 642.096 126.832 642.344 126.512C642.592 126.184 642.892 125.956 643.244 125.828C643.596 125.692 643.996 125.624 644.444 125.624C644.892 125.624 645.288 125.692 645.632 125.828C645.984 125.956 646.284 126.184 646.532 126.512C646.78 126.832 646.968 127.268 647.096 127.82C647.224 128.364 647.288 129.052 647.288 129.884C647.288 130.716 647.224 131.408 647.096 131.96C646.968 132.504 646.78 132.94 646.532 133.268C646.284 133.588 645.984 133.816 645.632 133.952C645.288 134.08 644.892 134.144 644.444 134.144ZM644.444 133.256C644.9 133.256 645.252 133.14 645.5 132.908C645.756 132.676 645.932 132.332 646.028 131.876C646.132 131.42 646.184 130.852 646.184 130.172V129.62C646.184 128.932 646.132 128.36 646.028 127.904C645.932 127.44 645.756 127.092 645.5 126.86C645.252 126.628 644.9 126.512 644.444 126.512C643.988 126.512 643.632 126.628 643.376 126.86C643.12 127.092 642.94 127.436 642.836 127.892C642.74 128.348 642.692 128.92 642.692 129.608V130.148C642.692 130.828 642.74 131.4 642.836 131.864C642.94 132.328 643.12 132.676 643.376 132.908C643.632 133.14 643.988 133.256 644.444 133.256Z" fill="#A7A7A9"/>
<path d="M695.296 134V133.1H697.372V127.4H695.284V126.728C695.58 126.704 695.884 126.66 696.196 126.596C696.516 126.532 696.828 126.432 697.132 126.296C697.436 126.152 697.712 125.968 697.96 125.744H698.44V133.1H700.396V134H695.296ZM704.194 134.144C703.746 134.144 703.346 134.08 702.994 133.952C702.642 133.816 702.342 133.588 702.094 133.268C701.846 132.94 701.658 132.504 701.53 131.96C701.402 131.408 701.338 130.716 701.338 129.884C701.338 129.052 701.402 128.364 701.53 127.82C701.658 127.268 701.846 126.832 702.094 126.512C702.342 126.184 702.642 125.956 702.994 125.828C703.346 125.692 703.746 125.624 704.194 125.624C704.642 125.624 705.038 125.692 705.382 125.828C705.734 125.956 706.034 126.184 706.282 126.512C706.53 126.832 706.718 127.268 706.846 127.82C706.974 128.364 707.038 129.052 707.038 129.884C707.038 130.716 706.974 131.408 706.846 131.96C706.718 132.504 706.53 132.94 706.282 133.268C706.034 133.588 705.734 133.816 705.382 133.952C705.038 134.08 704.642 134.144 704.194 134.144ZM704.194 133.256C704.65 133.256 705.002 133.14 705.25 132.908C705.506 132.676 705.682 132.332 705.778 131.876C705.882 131.42 705.934 130.852 705.934 130.172V129.62C705.934 128.932 705.882 128.36 705.778 127.904C705.682 127.44 705.506 127.092 705.25 126.86C705.002 126.628 704.65 126.512 704.194 126.512C703.738 126.512 703.382 126.628 703.126 126.86C702.87 127.092 702.69 127.436 702.586 127.892C702.49 128.348 702.442 128.92 702.442 129.608V130.148C702.442 130.828 702.49 131.4 702.586 131.864C702.69 132.328 702.87 132.676 703.126 132.908C703.382 133.14 703.738 133.256 704.194 133.256ZM711.073 134.144C710.625 134.144 710.225 134.08 709.873 133.952C709.521 133.816 709.221 133.588 708.973 133.268C708.725 132.94 708.537 132.504 708.409 131.96C708.281 131.408 708.217 130.716 708.217 129.884C708.217 129.052 708.281 128.364 708.409 127.82C708.537 127.268 708.725 126.832 708.973 126.512C709.221 126.184 709.521 125.956 709.873 125.828C710.225 125.692 710.625 125.624 711.073 125.624C711.521 125.624 711.917 125.692 712.261 125.828C712.613 125.956 712.913 126.184 713.161 126.512C713.409 126.832 713.597 127.268 713.725 127.82C713.853 128.364 713.917 129.052 713.917 129.884C713.917 130.716 713.853 131.408 713.725 131.96C713.597 132.504 713.409 132.94 713.161 133.268C712.913 133.588 712.613 133.816 712.261 133.952C711.917 134.08 711.521 134.144 711.073 134.144ZM711.073 133.256C711.529 133.256 711.881 133.14 712.129 132.908C712.385 132.676 712.561 132.332 712.657 131.876C712.761 131.42 712.813 130.852 712.813 130.172V129.62C712.813 128.932 712.761 128.36 712.657 127.904C712.561 127.44 712.385 127.092 712.129 126.86C711.881 126.628 711.529 126.512 711.073 126.512C710.617 126.512 710.261 126.628 710.005 126.86C709.749 127.092 709.569 127.436 709.465 127.892C709.369 128.348 709.321 128.92 709.321 129.608V130.148C709.321 130.828 709.369 131.4 709.465 131.864C709.569 132.328 709.749 132.676 710.005 132.908C710.261 133.14 710.617 133.256 711.073 133.256Z" fill="#A7A7A9"/>
<path d="M759.107 134V133.1H761.183V127.4H759.095V126.728C759.391 126.704 759.695 126.66 760.007 126.596C760.327 126.532 760.639 126.432 760.943 126.296C761.247 126.152 761.523 125.968 761.771 125.744H762.251V133.1H764.207V134H759.107ZM765.365 134V133.1H767.441V127.4H765.353V126.728C765.649 126.704 765.953 126.66 766.265 126.596C766.585 126.532 766.897 126.432 767.201 126.296C767.505 126.152 767.781 125.968 768.029 125.744H768.509V133.1H770.465V134H765.365ZM774.262 134.144C773.814 134.144 773.414 134.08 773.062 133.952C772.71 133.816 772.41 133.588 772.162 133.268C771.914 132.94 771.726 132.504 771.598 131.96C771.47 131.408 771.406 130.716 771.406 129.884C771.406 129.052 771.47 128.364 771.598 127.82C771.726 127.268 771.914 126.832 772.162 126.512C772.41 126.184 772.71 125.956 773.062 125.828C773.414 125.692 773.814 125.624 774.262 125.624C774.71 125.624 775.106 125.692 775.45 125.828C775.802 125.956 776.102 126.184 776.35 126.512C776.598 126.832 776.786 127.268 776.914 127.82C777.042 128.364 777.106 129.052 777.106 129.884C777.106 130.716 777.042 131.408 776.914 131.96C776.786 132.504 776.598 132.94 776.35 133.268C776.102 133.588 775.802 133.816 775.45 133.952C775.106 134.08 774.71 134.144 774.262 134.144ZM774.262 133.256C774.718 133.256 775.07 133.14 775.318 132.908C775.574 132.676 775.75 132.332 775.846 131.876C775.95 131.42 776.002 130.852 776.002 130.172V129.62C776.002 128.932 775.95 128.36 775.846 127.904C775.75 127.44 775.574 127.092 775.318 126.86C775.07 126.628 774.718 126.512 774.262 126.512C773.806 126.512 773.45 126.628 773.194 126.86C772.938 127.092 772.758 127.436 772.654 127.892C772.558 128.348 772.51 128.92 772.51 129.608V130.148C772.51 130.828 772.558 131.4 772.654 131.864C772.758 132.328 772.938 132.676 773.194 132.908C773.45 133.14 773.806 133.256 774.262 133.256Z" fill="#A7A7A9"/>
<path d="M812.859 134V133.1H814.935V127.4H812.847V126.728C813.143 126.704 813.447 126.66 813.759 126.596C814.079 126.532 814.391 126.432 814.695 126.296C814.999 126.152 815.275 125.968 815.523 125.744H816.003V133.1H817.959V134H812.859ZM818.913 134V133.652C818.913 133.316 818.977 133.008 819.104 132.728C819.241 132.44 819.417 132.18 819.633 131.948C819.857 131.708 820.109 131.48 820.389 131.264C820.669 131.048 820.953 130.836 821.241 130.628C821.633 130.356 821.993 130.084 822.321 129.812C822.657 129.54 822.925 129.248 823.125 128.936C823.325 128.616 823.425 128.26 823.425 127.868C823.425 127.62 823.365 127.396 823.245 127.196C823.133 126.988 822.961 126.824 822.729 126.704C822.497 126.584 822.201 126.524 821.84 126.524C821.417 126.524 821.077 126.596 820.821 126.74C820.565 126.884 820.377 127.076 820.257 127.316C820.145 127.556 820.089 127.82 820.089 128.108V128.6H819.045C819.037 128.56 819.029 128.5 819.021 128.42C819.013 128.332 819.009 128.232 819.009 128.12C819.009 127.528 819.141 127.052 819.405 126.692C819.669 126.324 820.021 126.056 820.461 125.888C820.901 125.712 821.377 125.624 821.889 125.624C822.345 125.624 822.737 125.688 823.065 125.816C823.393 125.936 823.665 126.104 823.881 126.32C824.097 126.536 824.257 126.784 824.361 127.064C824.465 127.336 824.517 127.624 824.517 127.928C824.517 128.304 824.449 128.648 824.312 128.96C824.185 129.272 824.001 129.564 823.761 129.836C823.529 130.1 823.253 130.356 822.933 130.604C822.621 130.852 822.281 131.104 821.913 131.36C821.657 131.528 821.405 131.708 821.157 131.9C820.909 132.084 820.697 132.272 820.521 132.464C820.345 132.656 820.233 132.84 820.185 133.016H824.565V134H818.913ZM828.565 134.144C828.117 134.144 827.717 134.08 827.365 133.952C827.013 133.816 826.713 133.588 826.465 133.268C826.217 132.94 826.029 132.504 825.901 131.96C825.773 131.408 825.709 130.716 825.709 129.884C825.709 129.052 825.773 128.364 825.901 127.82C826.029 127.268 826.217 126.832 826.465 126.512C826.713 126.184 827.013 125.956 827.365 125.828C827.717 125.692 828.117 125.624 828.565 125.624C829.013 125.624 829.409 125.692 829.753 125.828C830.105 125.956 830.405 126.184 830.653 126.512C830.901 126.832 831.089 127.268 831.217 127.82C831.345 128.364 831.409 129.052 831.409 129.884C831.409 130.716 831.345 131.408 831.217 131.96C831.089 132.504 830.901 132.94 830.653 133.268C830.405 133.588 830.105 133.816 829.753 133.952C829.409 134.08 829.013 134.144 828.565 134.144ZM828.565 133.256C829.021 133.256 829.373 133.14 829.621 132.908C829.877 132.676 830.053 132.332 830.149 131.876C830.253 131.42 830.305 130.852 830.305 130.172V129.62C830.305 128.932 830.253 128.36 830.149 127.904C830.053 127.44 829.877 127.092 829.621 126.86C829.373 126.628 829.021 126.512 828.565 126.512C828.109 126.512 827.753 126.628 827.497 126.86C827.241 127.092 827.061 127.436 826.957 127.892C826.861 128.348 826.813 128.92 826.813 129.608V130.148C826.813 130.828 826.861 131.4 826.957 131.864C827.061 132.328 827.241 132.676 827.497 132.908C827.753 133.14 828.109 133.256 828.565 133.256Z" fill="#A7A7A9"/>
<line x1="0.5" y1="1" x2="0.500005" y2="117" stroke="#595B5D"/>
<line x1="64.5" y1="1" x2="64.5" y2="117" stroke="#595B5D"/>
<line x1="128.5" y1="1" x2="128.5" y2="117" stroke="#595B5D"/>
<line x1="192.5" y1="1" x2="192.5" y2="117" stroke="#595B5D"/>
<line x1="256.5" y1="1" x2="256.5" y2="117" stroke="#595B5D"/>
<line x1="320.5" y1="1" x2="320.5" y2="117" stroke="#595B5D"/>
<line x1="384.5" y1="1" x2="384.5" y2="117" stroke="#595B5D"/>
<line x1="448.5" y1="1" x2="448.5" y2="117" stroke="#595B5D"/>
<line x1="512.5" y1="1" x2="512.5" y2="117" stroke="#595B5D"/>
<line x1="576.5" y1="1" x2="576.5" y2="117" stroke="#595B5D"/>
<line x1="640.5" y1="1" x2="640.5" y2="117" stroke="#595B5D"/>
<line x1="704.5" y1="1" x2="704.5" y2="117" stroke="#595B5D"/>
<line x1="768.5" y1="1" x2="768.5" y2="117" stroke="#595B5D"/>
<line x1="832.5" y1="1" x2="832.5" y2="117" stroke="#595B5D"/>
<line x1="4.37114e-08" y1="0.5" x2="833" y2="0.500073" stroke="#595B5D"/>
<line x1="4.37114e-08" y1="20.5001" x2="832" y2="20.5002" stroke="#595B5D"/>
<line x1="4.37114e-08" y1="40.5002" x2="832" y2="40.5003" stroke="#595B5D"/>
<line x1="2.86429e-08" y1="60.5" x2="832" y2="60.5001" stroke="#595B5D"/>
<line x1="2.59314e-08" y1="80.5004" x2="832" y2="80.5005" stroke="#595B5D"/>
<line x1="2.59314e-08" y1="100.5" x2="832" y2="100.501" stroke="#595B5D"/>
<path d="M2 67.6429L3.58302 58.6197C3.78216 57.4846 5.38805 57.4222 5.67468 58.5384V58.5384C5.97877 59.7226 7.71053 59.5541 7.78068 58.3335L8.98486 37.381L10.1318 58.0928C10.2138 59.5741 12.3665 59.6614 12.5681 58.1915L12.6132 57.8633C12.8036 56.4753 14.821 56.5085 14.9657 57.9019V57.9019C15.1146 59.3365 17.2122 59.3104 17.3255 57.8726L18.7468 39.8214L19.9492 59.7463C20.023 60.9693 21.7922 61.0553 21.9842 59.8452L22.1618 58.7268C22.3102 57.7918 23.653 57.7828 23.8138 58.7158V58.7158C23.9621 59.5757 25.1622 59.6638 25.4345 58.8348L26.5332 55.4892C26.8573 54.5022 28.2831 54.5955 28.4759 55.6163V55.6163C28.6892 56.746 30.3319 56.6343 30.4684 55.4928V55.4928C30.6177 54.2439 32.4607 54.2003 32.5309 55.4561L33.3898 70.8155L34.5021 56.8368C34.6773 54.6352 37.8453 54.4808 38.2338 56.6549L38.5054 58.1749C38.8397 60.046 41.5497 59.9674 41.775 58.08L41.9855 56.3165C42.19 54.6034 44.6798 54.6156 44.8675 56.3306L45.1025 58.478C45.2588 59.907 47.3345 59.914 47.5005 58.4861L47.5617 57.9596C47.7189 56.608 49.6819 56.6093 49.8372 57.9611V57.9611C49.9695 59.1122 51.5317 59.3615 52.0157 58.3088L54.0684 53.8442C54.3812 53.1639 55.3768 53.2602 55.5534 53.9879V53.9879C55.762 54.8475 57.0099 54.7667 57.1059 53.8873L57.3005 52.1053C57.4407 50.8214 59.2937 50.7817 59.4888 52.0584L59.9415 55.0205C60.143 56.3392 62.0705 56.2547 62.1558 54.9233V54.9233C62.2365 53.6629 64.0205 53.4873 64.3453 54.7078L64.8709 56.6821C65.2286 58.026 67.1526 57.9765 67.4406 56.6159L67.536 56.1658C67.833 54.763 69.8726 54.8807 70.0062 56.3084V56.3084C70.1415 57.7532 72.2153 57.8484 72.4823 56.422L72.8432 54.4942C73.1397 52.9101 75.3703 52.8073 75.8113 54.3574L76.7366 57.61C77.1985 59.2336 79.5908 58.8999 79.5908 57.2119V54.6249C79.5908 53.4414 81.2515 53.1757 81.6207 54.3001V54.3001C81.9611 55.3366 83.4641 55.2178 83.6374 54.1407L83.8593 52.7621C84.1109 51.1986 86.3682 51.2209 86.5889 52.7891L87.8699 61.8905C88.0509 63.1764 89.8643 63.2907 90.2054 62.0378L90.3981 61.3301C90.6459 60.4197 91.919 60.3705 92.2364 61.2591V61.2591C92.5805 62.2227 93.9908 62.0573 94.1027 61.0403L94.2317 59.8686C94.3794 58.5263 96.2652 58.3601 96.6454 59.6558L96.8663 60.4086C97.2634 61.7615 99.1889 61.7353 99.549 60.372L100.317 57.4634C100.648 56.2108 102.367 56.0644 102.905 57.243V57.243C103.494 58.5339 105.416 58.1733 105.536 56.7595V56.7595C105.67 55.1788 107.92 54.9625 108.292 56.5045L108.559 57.612C108.964 59.2893 111.379 59.2002 111.66 57.4977L111.943 55.7748C112.275 53.7597 115.196 53.8533 115.45 55.8797V55.8797C115.692 57.8088 118.427 58.0038 118.901 56.1182L119.428 54.0201C119.769 52.6634 121.721 52.7341 121.962 54.112V54.112C122.217 55.5618 124.307 55.533 124.521 54.0767L124.885 51.6032C125.152 49.7894 127.706 49.6252 128.202 51.3899L128.469 52.3364C128.926 53.96 131.243 53.9164 131.638 52.2767L132.01 50.7385C132.359 49.2915 134.453 49.402 134.648 50.8777V50.8777C134.844 52.3657 136.962 52.4601 137.291 50.9955L137.468 50.2035C137.816 48.6536 140.024 48.6536 140.372 50.2035L142.162 58.1903C142.189 58.3092 142.226 58.4254 142.274 58.5375L142.915 60.0407C143.738 61.9708 146.599 61.4923 146.75 59.3994L146.955 56.5356C146.984 56.1405 147.133 55.7636 147.382 55.456L148.847 53.6513C149.402 52.9667 150.508 53.3015 150.591 54.1792V54.1792C150.703 55.3747 152.451 55.3658 152.551 54.1692L153.02 48.5715C153.045 48.2766 153.157 47.9959 153.343 47.7653L153.631 47.4064C154.739 46.0299 156.957 46.6605 157.174 48.4138L158.062 55.5609C158.305 57.517 160.932 57.9794 161.828 56.2236L161.901 56.0812C161.952 55.9796 161.995 55.8738 162.029 55.7649L163.535 50.9134C164.143 48.9551 166.953 49.0708 167.397 51.0725L169.286 59.5735C169.669 61.299 172.177 61.1461 172.348 59.3868V59.3868C172.512 57.7024 174.869 57.4571 175.376 59.0718L176.292 61.9905C176.936 64.0434 179.924 63.7702 180.185 61.6344L180.71 57.3494C180.971 55.2112 183.964 54.9409 184.604 56.9976L186.303 62.4519C186.851 64.2115 189.426 63.9181 189.565 62.0802L189.825 58.6115C189.919 57.3572 191.699 57.2049 192.005 58.4249V58.4249C192.312 59.6487 194.099 59.4903 194.186 58.2316L194.306 56.484C194.405 55.0557 196.441 54.8954 196.762 56.2907V56.2907C197.063 57.6023 198.942 57.5692 199.197 56.2479L200.126 51.4381C200.421 49.9121 202.616 49.9464 202.863 51.4808L203.139 53.1918C203.32 54.3201 204.922 54.3795 205.186 53.2678V53.2678C205.451 52.1541 207.057 52.2165 207.235 53.3475L207.314 53.8518C207.521 55.1662 209.425 55.1309 209.583 53.8098L209.897 51.18C210.067 49.7635 212.086 49.6665 212.39 51.0602L212.589 51.9724C212.855 53.1915 214.621 53.1077 214.771 51.8688V51.8688C214.925 50.5875 216.778 50.5824 216.969 51.8589V51.8589C217.154 53.0984 218.931 53.15 219.165 51.9187L219.666 49.2779C219.854 48.2854 221.29 48.3313 221.415 49.3338L221.532 50.2795C221.641 51.1584 222.911 51.1698 223.036 50.293V50.293C223.161 49.4171 224.429 49.4272 224.54 50.3049L224.753 51.991C224.902 53.1755 226.634 53.1263 226.716 51.9353L226.802 50.6975C226.895 49.3431 228.874 49.3124 229.01 50.6633L231.322 73.744V23.9583L234.008 56.3837C234.146 58.0477 236.544 58.1492 236.822 56.5029V56.5029C237.105 54.83 239.553 54.9727 239.639 56.6671L239.651 56.8961C239.733 58.5144 242.009 58.7912 242.477 57.2399L243.458 53.988C244.09 51.8944 247.153 52.2371 247.307 54.4185L247.353 55.0725C247.504 57.2192 250.564 57.4558 251.044 55.3579V55.3579C251.477 53.4624 254.155 53.4027 254.672 55.277L256.521 61.9802C257.124 64.1638 260.32 63.8214 260.446 61.5597L261.46 43.3867C261.594 40.9838 265.077 40.8211 265.434 43.201L267.402 56.297C267.77 58.7444 271.38 58.4747 271.38 55.9998V47.2494C271.38 44.8019 274.933 44.4967 275.351 46.9084L280.446 76.3614C280.853 78.7118 284.292 78.5051 284.414 76.1229L284.954 65.5952C285.08 63.1305 288.686 63.0363 288.941 65.4911L289.227 68.243C289.467 70.557 292.797 70.6656 293.187 68.3721L295.151 56.8393C295.536 54.5762 298.809 54.6397 299.106 56.916L301.476 75.0718C301.787 77.4535 305.264 77.365 305.453 74.9706L307.275 51.9471C307.458 49.6331 310.774 49.436 311.23 51.712L311.967 55.3944C312.429 57.6977 315.795 57.4576 315.925 55.1121L316.437 45.8686C316.565 43.5457 319.887 43.2769 320.387 45.549L323.606 60.1652C324.016 62.0255 326.696 61.9428 326.99 60.0608V60.0608C327.298 58.0921 330.146 58.1307 330.4 60.107L330.662 62.1366C330.971 64.5395 334.487 64.4263 334.641 62.0085L335.565 47.5128C335.715 45.1588 339.104 44.9596 339.528 47.28L342.058 61.0989C342.496 63.4947 346.025 63.1744 346.025 60.7388V54.9673C346.025 52.662 349.307 52.2355 349.896 54.4643V54.4643C350.486 56.6931 353.767 56.2666 353.767 53.9612V12L359.031 55.4605C359.269 57.4259 361.912 57.8878 362.803 56.1195L371.525 38.7988C372.473 36.9166 375.311 37.591 375.311 39.6983V62.0298V41.4216C375.311 39.0429 378.722 38.6523 379.259 40.9694L380.979 48.3785C381.502 50.6317 384.796 50.3467 384.924 48.0372L386.028 28.1431C386.159 25.7896 389.542 25.5605 389.989 27.8749L396.221 60.1565C396.627 62.2626 399.614 62.3381 400.127 60.2552L405.968 36.512C406.515 34.2923 409.756 34.5775 409.906 36.8584L412.928 82.7738L414.525 58.4869C414.683 56.0786 418.218 56.0591 418.403 58.4655V58.4655C418.578 60.7425 421.855 60.9048 422.254 58.6563L425.917 38.018C426.323 35.7345 429.638 35.8555 429.876 38.1625L432.272 61.4217C432.521 63.8387 436.053 63.8042 436.255 61.3829L437.82 42.6095C438.005 40.3788 441.156 40.0913 441.743 42.2516L447.917 64.9938C448.479 67.0615 451.458 66.9184 451.819 64.8064L456.289 38.6214C456.682 36.3225 460.023 36.441 460.251 38.7619L464.388 80.7544C464.614 83.0392 467.883 83.2059 468.339 80.9558L475.346 46.4043C475.812 44.1076 479.168 44.347 479.303 46.6865L481.258 80.5479C481.384 82.7427 484.445 83.1559 485.149 81.0732L493.159 57.3813C493.856 55.3195 496.879 55.6971 497.048 57.867L498.918 81.9409C499.083 84.0691 502.021 84.4928 502.781 82.498L512.676 56.5194C513.322 54.8233 515.712 54.7954 516.397 56.4759L527.744 84.2954C528.506 86.1619 531.237 85.8573 531.569 83.8691L537.863 46.1262C538.247 43.8223 541.595 43.9333 541.826 46.2576L546.566 94V61.1947C546.566 58.9049 549.79 58.4118 550.475 60.5969L555.543 76.7784C556.215 78.9227 559.367 78.5004 559.451 76.2549L560.313 53.0824C560.404 50.6507 563.938 50.459 564.291 52.8666L565.75 62.8186C566.073 65.0221 569.214 65.1276 569.684 62.9507L574.346 41.3676C574.811 39.2177 577.9 39.2836 578.272 41.4514L583.326 70.8776C583.741 73.2913 587.297 72.988 587.297 70.539V45.0791C587.297 44.8301 587.344 44.5834 587.434 44.3515L592.618 31.0803C593.367 29.1625 596.176 29.4914 596.462 31.5303L599.415 52.5917C599.731 54.8501 602.975 54.9036 603.366 52.6568L607.692 27.7942C608.095 25.4744 611.478 25.6374 611.656 27.9853L614.256 62.1452C614.44 64.5596 617.954 64.6313 618.237 62.2265L622.726 23.9583V64.3755C622.726 66.533 625.671 67.1616 626.552 65.1922L636.527 42.8934C637.303 41.1607 639.829 41.3813 640.293 43.222L644.033 58.0881C644.608 60.3736 647.973 59.9567 647.973 57.6001V48.0273C647.973 45.5731 651.54 45.2766 651.945 47.6973L654.496 62.9364C654.863 65.1299 657.999 65.1761 658.43 62.9943L663.514 37.2887C663.961 35.0296 667.244 35.1909 667.467 37.483L671.287 76.7421C671.518 79.1077 674.946 79.1688 675.26 76.8129L679.209 47.2243C679.52 44.8893 682.908 44.9197 683.178 47.2598L685.814 70.1355C686.092 72.5424 689.61 72.4755 689.795 70.0598L692.892 29.7752C693.075 27.398 696.516 27.2774 696.864 29.636L704.169 79.0607C704.51 81.3724 707.862 81.3219 708.134 79.001L713.086 36.7273C713.352 34.4589 716.6 34.3364 717.036 36.5783L725.002 77.5513C725.441 79.8103 728.722 79.6618 728.955 77.3724L732.969 37.9934C733.204 35.6901 736.512 35.5602 736.927 37.8381L744.083 77.1488C744.497 79.4219 747.795 79.2992 748.039 77.0015L753.209 28.2652C753.458 25.9179 756.855 25.8636 757.178 28.2017L764.093 78.1093C764.416 80.4419 767.803 80.3957 768.062 78.0552L773.435 29.5807C773.697 27.2131 777.137 27.2055 777.409 29.572L782.201 71.1297C782.477 73.525 785.973 73.4751 786.18 71.0729L789.898 28.0855C790.101 25.7376 793.489 25.6122 793.865 27.9387L799.026 59.8732C799.37 62.0023 802.376 62.154 802.932 60.0703L810.261 32.6387C810.813 30.5729 813.785 30.6979 814.162 32.8028L821.407 73.3112C821.789 75.4462 824.821 75.5316 825.322 73.4213L830 53.7321" stroke="#0C8CE9"/>
<path d="M831 46.3572L829.415 55.3802C829.216 56.5164 827.608 56.579 827.321 55.4617V55.4617C827.016 54.2763 825.283 54.4451 825.212 55.6671L824.007 76.6191L822.858 55.9075C822.776 54.4245 820.621 54.3371 820.419 55.8085L820.374 56.1369C820.183 57.5263 818.164 57.493 818.019 56.0981V56.0981C817.869 54.662 815.77 54.6881 815.656 56.1275L814.233 74.1786L813.029 54.254C812.955 53.0297 811.184 52.9435 810.992 54.1548L810.814 55.2732C810.665 56.2092 809.321 56.2182 809.16 55.2842V55.2842C809.011 54.4236 807.81 54.3354 807.537 55.165L806.437 58.5111C806.112 59.4989 804.685 59.4055 804.492 58.3837V58.3837C804.278 57.2529 802.634 57.3646 802.497 58.5073V58.5073C802.348 59.7576 800.503 59.801 800.432 58.5438L799.572 43.1846L798.459 57.1628C798.283 59.3668 795.112 59.5215 794.722 57.3451L794.451 55.825C794.115 53.9519 791.403 54.0308 791.177 55.9201L790.966 57.6836C790.761 59.3985 788.269 59.3863 788.081 57.6694L787.845 55.5221C787.689 54.0916 785.611 54.0845 785.445 55.5139L785.383 56.0406C785.226 57.3937 783.261 57.3924 783.105 56.0391V56.0391C782.972 54.887 781.409 54.6373 780.924 55.6907L778.869 60.1561C778.555 60.8369 777.559 60.7404 777.382 60.0122V60.0122C777.173 59.1517 775.924 59.2327 775.828 60.1129L775.633 61.8948C775.492 63.18 773.637 63.2198 773.442 61.9418L772.988 58.9793C772.787 57.6591 770.857 57.7439 770.772 59.0766V59.0766C770.691 60.3383 768.905 60.5143 768.579 59.2926L768.053 57.3177C767.695 55.9726 765.769 56.0223 765.48 57.3841L765.385 57.8346C765.087 59.2388 763.046 59.1208 762.912 57.6916V57.6916C762.776 56.2453 760.7 56.1499 760.433 57.5777L760.071 59.5058C759.774 61.0914 757.542 61.1944 757.1 59.6429L756.173 56.3891C755.71 54.764 753.315 55.0984 753.315 56.7881L753.315 59.3742C753.315 60.5591 751.653 60.8253 751.283 59.6998V59.6998C750.942 58.6624 749.438 58.7814 749.264 59.8596L749.042 61.2379C748.79 62.8031 746.53 62.7808 746.309 61.211L745.026 52.1099C744.845 50.8227 743.03 50.7081 742.688 51.9623L742.495 52.6698C742.247 53.5811 740.973 53.6303 740.655 52.741V52.741C740.31 51.7765 738.898 51.9422 738.786 52.9603L738.657 54.1315C738.509 55.475 736.621 55.6416 736.24 54.3447L736.019 53.5914C735.621 52.2373 733.694 52.2636 733.333 53.628L732.564 56.5362C732.233 57.7899 730.512 57.9366 729.973 56.7571V56.7571C729.383 55.4652 727.459 55.826 727.339 57.2414V57.2414C727.205 58.8236 724.953 59.0396 724.58 57.4962L724.312 56.388C723.906 54.7091 721.489 54.7984 721.208 56.5026L720.924 58.2254C720.592 60.2426 717.668 60.1491 717.413 58.1206V58.1206C717.171 56.1895 714.432 55.9945 713.958 57.8819L713.43 59.9801C713.088 61.3381 711.135 61.2672 710.893 59.888V59.888C710.638 58.4367 708.545 58.4656 708.331 59.9234L707.966 62.3968C707.699 64.2123 705.143 64.3768 704.645 62.6106L704.378 61.6635C703.92 60.0384 701.602 60.0821 701.205 61.7233L700.833 63.2618C700.483 64.7102 698.388 64.5995 698.192 63.1223V63.1223C697.995 61.6328 695.875 61.5382 695.546 63.0043L695.368 63.7966C695.02 65.3479 692.809 65.3479 692.461 63.7966L690.669 55.8099C690.642 55.6909 690.605 55.5746 690.557 55.4624L689.911 53.9492C689.087 52.02 686.227 52.4988 686.076 54.5912L685.87 57.4632C685.841 57.8591 685.692 58.2367 685.441 58.5448L683.976 60.3493C683.419 61.0341 682.312 60.6988 682.23 59.8204V59.8204C682.117 58.6236 680.367 58.6326 680.267 59.8304L679.798 65.4276C679.773 65.7231 679.66 66.0044 679.474 66.2353L679.181 66.5992C678.073 67.9745 675.857 67.3437 675.639 65.5912L674.749 58.4317C674.506 56.4762 671.88 56.0136 670.983 57.7684L670.906 57.9187C670.854 58.0204 670.811 58.1263 670.777 58.2353L669.267 63.096C668.659 65.0535 665.85 64.9377 665.405 62.9367L663.512 54.426C663.128 52.6989 660.618 52.8521 660.446 54.6132V54.6132C660.282 56.2992 657.923 56.5449 657.415 54.9288L656.494 51.9981C655.849 49.9459 652.862 50.2194 652.601 52.3545L652.073 56.6617C651.811 58.7993 648.82 59.0699 648.179 57.0139L646.474 51.5474C645.925 49.7862 643.347 50.0802 643.209 51.9199L642.948 55.3881C642.854 56.6437 641.072 56.7963 640.765 55.5751V55.5751C640.458 54.3501 638.669 54.5088 638.582 55.7689L638.462 57.5155C638.363 58.9454 636.325 59.106 636.003 57.7092V57.7092C635.701 56.3964 633.82 56.4296 633.564 57.7522L632.634 62.5621C632.339 64.0895 630.142 64.0552 629.894 62.5193L629.619 60.8084C629.437 59.679 627.834 59.6194 627.568 60.7322V60.7322C627.303 61.847 625.696 61.7845 625.517 60.6524L625.438 60.1482C625.231 58.8325 623.325 58.8678 623.166 60.1903L622.852 62.8197C622.682 64.2377 620.661 64.3349 620.356 62.9398L620.156 62.0274C619.89 60.8071 618.122 60.8911 617.972 62.1312V62.1312C617.817 63.4139 615.963 63.419 615.772 62.1412V62.1412C615.586 60.9004 613.807 60.8487 613.573 62.0813L613.071 64.7222C612.883 65.7157 611.445 65.6697 611.32 64.6662L611.203 63.7205C611.093 62.8407 609.822 62.8293 609.697 63.707V63.707C609.572 64.5838 608.303 64.5737 608.191 63.695L607.978 62.009C607.828 60.8233 606.094 60.8725 606.012 62.0649L605.927 63.3025C605.833 64.6584 603.852 64.6892 603.716 63.3368L601.401 40.256L601.401 90.0417L598.712 57.6166C598.574 55.9508 596.173 55.849 595.894 57.4971V57.4971C595.611 59.1717 593.16 59.0288 593.074 57.3325L593.062 57.1041C592.979 55.4842 590.702 55.2068 590.233 56.7595L589.25 60.0129C588.617 62.1083 585.551 61.7649 585.397 59.5814L585.351 58.9283C585.2 56.7793 582.136 56.5421 581.656 58.6422V58.6422C581.222 60.5394 578.541 60.5992 578.023 58.7232L576.167 52.005C575.564 49.8219 572.369 50.1647 572.243 52.4259L571.226 70.6367C571.091 73.0393 567.609 73.2022 567.251 70.8226L565.273 57.6708C564.905 55.2236 561.295 55.4936 561.295 57.9683L561.295 66.7783C561.295 69.2256 557.742 69.531 557.324 67.1197L552.214 37.6168C551.807 35.2668 548.368 35.4738 548.246 37.8557L547.703 48.4359C547.576 50.9005 543.971 50.9947 543.716 48.5402L543.425 45.7394C543.184 43.4258 539.855 43.3171 539.464 45.6101L537.492 57.177C537.106 59.4396 533.835 59.3761 533.537 57.1001L531.159 38.905C530.848 36.5237 527.372 36.6123 527.182 39.0064L525.355 62.0702C525.172 64.3837 521.857 64.581 521.4 62.3056L520.655 58.5865C520.193 56.2836 516.827 56.524 516.697 58.8691L516.182 68.1488C516.054 70.4714 512.733 70.7404 512.232 68.4688L509.005 53.8346C508.595 51.9725 505.912 52.0553 505.617 53.9392V53.9392C505.309 55.91 502.458 55.8713 502.203 53.8929L501.938 51.8381C501.629 49.4356 498.113 49.5489 497.959 51.9664L497.031 66.5067C496.88 68.8604 493.493 69.0597 493.068 66.7398L490.527 52.8746C490.088 50.4791 486.559 50.7998 486.559 53.2351L486.559 59.0315C486.559 61.3394 483.274 61.7668 482.684 59.5357V59.5357C482.093 57.3047 478.808 57.7321 478.808 60.04L478.808 102L473.537 58.532C473.299 56.5672 470.657 56.1051 469.766 57.8724L461.024 75.2111C460.075 77.0924 457.238 76.4176 457.238 74.3107L457.238 51.9703L457.238 72.599C457.238 74.9773 453.828 75.3683 453.29 73.0516L451.559 65.6044C451.036 63.3517 447.743 63.637 447.614 65.9462L446.507 85.8762C446.376 88.2294 442.993 88.4587 442.546 86.1448L436.301 53.8324C435.894 51.7269 432.908 51.6513 432.395 53.7335L426.54 77.5038C425.993 79.7229 422.752 79.4374 422.602 77.157L419.575 31.2262L417.977 55.5131C417.818 57.9241 414.28 57.9436 414.095 55.5345V55.5345C413.919 53.2552 410.638 53.0925 410.238 55.3433L406.567 75.9994C406.162 78.2825 402.847 78.1613 402.609 75.8547L400.205 52.5523C399.956 50.1356 396.425 50.1701 396.223 52.5912L394.653 71.404C394.467 73.6343 391.317 73.922 390.73 71.7623L384.541 48.995C383.979 46.928 381.001 47.0712 380.64 49.1826L376.159 75.3967C375.766 77.6951 372.426 77.5766 372.197 75.2561L368.052 33.2296C367.826 30.9452 364.558 30.7783 364.101 33.0279L357.078 67.6145C356.612 69.9107 353.257 69.6711 353.122 67.3319L351.163 33.4402C351.036 31.2458 347.976 30.8323 347.272 32.9143L339.243 56.6307C338.546 58.6917 335.524 58.3138 335.355 56.1445L333.481 32.0488C333.316 29.9211 330.379 29.4972 329.619 31.4911L319.704 57.4871C319.058 59.1821 316.67 59.21 315.984 57.5305L304.617 29.6958C303.855 27.8303 301.125 28.135 300.793 30.1226L294.487 67.8921C294.102 70.1956 290.755 70.0845 290.524 67.7606L285.776 20L285.776 52.8203C285.776 55.1097 282.553 55.6033 281.868 53.4188L276.784 37.2075C276.111 35.0639 272.96 35.4865 272.877 37.7315L272.011 60.9438C271.921 63.3752 268.387 63.5671 268.034 61.1598L266.567 51.1679C266.243 48.965 263.104 48.8595 262.633 51.0357L257.96 72.645C257.495 74.7943 254.407 74.7284 254.034 72.5612L248.967 43.0942C248.552 40.6808 244.996 40.9843 244.996 43.4331L244.996 68.9204C244.996 69.1697 244.949 69.4167 244.858 69.6489L239.665 82.9292C238.915 84.846 236.108 84.517 235.822 82.4788L232.862 61.3928C232.545 59.1349 229.302 59.0813 228.911 61.3276L224.573 86.2253C224.169 88.5447 220.788 88.3815 220.609 86.034L218.003 51.8298C217.819 49.4157 214.305 49.3439 214.022 51.7484L209.524 90.0416L209.524 49.6142C209.524 47.4572 206.58 46.8281 205.699 48.7967L195.703 71.1139C194.927 72.8456 192.402 72.6249 191.938 70.785L188.186 55.8924C187.611 53.6075 184.247 54.0247 184.247 56.381L184.247 66.0012C184.247 68.4553 180.68 68.752 180.274 66.3317L177.714 51.0502C177.347 48.8573 174.212 48.8111 173.78 50.9922L168.684 76.7278C168.237 78.9865 164.955 78.825 164.731 76.5333L160.902 37.2369C160.672 34.8717 157.244 34.8105 156.929 37.166L152.971 66.7953C152.659 69.1298 149.272 69.0995 149.002 66.7597L146.357 43.8392C146.079 41.4326 142.562 41.4996 142.376 43.915L139.272 84.2463C139.089 86.6232 135.649 86.7438 135.3 84.3856L127.981 34.9209C127.639 32.6097 124.288 32.6601 124.016 34.9806L119.053 77.2882C118.787 79.5562 115.54 79.6788 115.104 77.4374L107.121 36.4322C106.682 34.1737 103.402 34.3223 103.169 36.6113L99.1461 76.0236C98.9111 78.3265 95.604 78.4565 95.1889 76.1791L88.018 36.8342C87.6038 34.5616 84.3055 34.6845 84.0616 36.9817L78.8821 85.7546C78.6328 88.1015 75.2365 88.1559 74.9122 85.8182L67.9838 35.8711C67.6603 33.539 64.2747 33.5852 64.015 35.9254L58.6312 84.4406C58.3685 86.8079 54.9297 86.8155 54.6566 84.4494L49.8539 42.8463C49.5774 40.4512 46.0825 40.5012 45.8746 42.9031L42.149 85.9339C41.9458 88.2815 38.5585 88.407 38.1821 86.0809L33.0098 54.1155C32.6653 51.9869 29.6605 51.8351 29.1034 53.9181L21.7599 81.3723C21.2076 83.4375 18.236 83.3124 17.8592 81.2081L10.6008 40.6771C10.2186 38.5426 7.18825 38.4572 6.68643 40.5668L2.00001 60.2678" stroke="#0CE9CC"/>
</svg>
