<svg width="24" height="24" viewBox="0 0 24 24" fill="none" xmlns="http://www.w3.org/2000/svg">
<g id="profile">
<g id="vuesax/linear/profile">
<g id="profile_2">
<path id="Vector" d="M12.1596 10.7671C12.0596 10.7572 11.9396 10.7572 11.8296 10.7671C9.44957 10.6872 7.55957 8.73917 7.55957 6.34157C7.55957 3.89402 9.53957 1.90601 11.9996 1.90601C14.4496 1.90601 16.4396 3.89402 16.4396 6.34157C16.4296 8.73917 14.5396 10.6872 12.1596 10.7671Z" stroke="#A9AAAB" stroke-width="1.5" stroke-linecap="round" stroke-linejoin="round"/>
<path id="Vector_2" d="M7.15973 14.4535C4.73973 16.0719 4.73973 18.7093 7.15973 20.3177C9.90973 22.1558 14.4197 22.1558 17.1697 20.3177C19.5897 18.6993 19.5897 16.0619 17.1697 14.4535C14.4297 12.6254 9.91973 12.6254 7.15973 14.4535Z" stroke="#A9AAAB" stroke-width="1.5" stroke-linecap="round" stroke-linejoin="round"/>
</g>
</g>
</g>
</svg>
