<svg width="16" height="16" viewBox="0 0 16 16" fill="none" xmlns="http://www.w3.org/2000/svg">
<g id="Icon - Notification" clip-path="url(#clip0_145_333)">
<path id="Shape" d="M8.8 4.8C8.8 5.24183 8.44183 5.6 8 5.6C7.55817 5.6 7.2 5.24183 7.2 4.8C7.2 4.35817 7.55817 4 8 4C8.44183 4 8.8 4.35817 8.8 4.8ZM8.8 11.2C8.8 11.6418 8.44183 12 8 12C7.55817 12 7.2 11.6418 7.2 11.2L7.2 8C7.2 7.55817 7.55817 7.2 8 7.2C8.44183 7.2 8.8 7.55817 8.8 8L8.8 11.2ZM8.008 16C12.424 16 16 12.416 16 8C16 3.584 12.424 -3.12624e-07 8.008 -6.98683e-07C3.584 -1.08544e-06 1.08544e-06 3.584 6.99382e-07 8C3.13323e-07 12.416 3.584 16 8.008 16ZM8 1.6C11.536 1.6 14.4 4.464 14.4 8C14.4 11.536 11.536 14.4 8 14.4C4.464 14.4 1.6 11.536 1.6 8C1.6 4.464 4.464 1.6 8 1.6Z" fill="#A9AAAB"/>
</g>
<defs>
<clipPath id="clip0_145_333">
<rect width="16" height="16" fill="white" transform="translate(16 16) rotate(-180)"/>
</clipPath>
</defs>
</svg>
