<svg width="34" height="11" viewBox="0 0 34 11" fill="none" xmlns="http://www.w3.org/2000/svg">
<path d="M5.40352 10.168C4.67552 10.168 4.02685 10.0373 3.45752 9.776C2.88818 9.50533 2.40285 9.14133 2.00152 8.684C1.60952 8.21733 1.30618 7.676 1.09152 7.06C0.886182 6.444 0.783515 5.786 0.783515 5.086C0.783515 4.12467 0.965515 3.266 1.32952 2.51C1.70285 1.74467 2.23485 1.14267 2.92552 0.704C3.61618 0.256 4.44218 0.0319998 5.40352 0.0319998C6.12218 0.0319998 6.76618 0.162666 7.33552 0.424C7.91418 0.685333 8.40418 1.04933 8.80552 1.516C9.20685 1.98267 9.51018 2.51933 9.71552 3.126C9.93018 3.73267 10.0375 4.386 10.0375 5.086C10.0375 5.786 9.93018 6.444 9.71552 7.06C9.51018 7.676 9.20685 8.21733 8.80552 8.684C8.40418 9.14133 7.91885 9.50533 7.34952 9.776C6.78018 10.0373 6.13152 10.168 5.40352 10.168ZM5.40352 9.02C6.12218 9.02 6.72418 8.84733 7.20952 8.502C7.69485 8.15667 8.05885 7.69 8.30152 7.102C8.55352 6.50467 8.67952 5.83267 8.67952 5.086C8.67952 4.582 8.60485 4.09667 8.45552 3.63C8.30618 3.16333 8.09152 2.748 7.81152 2.384C7.53152 2.01067 7.18618 1.71667 6.77552 1.502C6.37418 1.28733 5.91685 1.18 5.40352 1.18C4.72218 1.18 4.13418 1.35267 3.63952 1.698C3.15418 2.04333 2.78085 2.51 2.51952 3.098C2.26752 3.686 2.14152 4.34867 2.14152 5.086C2.14152 5.59 2.21152 6.08 2.35152 6.556C2.50085 7.02267 2.71552 7.44267 2.99552 7.816C3.27552 8.18933 3.61618 8.48333 4.01752 8.698C4.42818 8.91267 4.89018 9.02 5.40352 9.02ZM18.5739 10.168C17.8459 10.168 17.1972 10.0373 16.6279 9.776C16.0586 9.50533 15.5732 9.14133 15.1719 8.684C14.7799 8.21733 14.4766 7.676 14.2619 7.06C14.0566 6.444 13.9539 5.786 13.9539 5.086C13.9539 4.12467 14.1359 3.266 14.4999 2.51C14.8732 1.74467 15.4052 1.14267 16.0959 0.704C16.7866 0.256 17.6126 0.0319998 18.5739 0.0319998C19.2926 0.0319998 19.9366 0.162666 20.5059 0.424C21.0846 0.685333 21.5746 1.04933 21.9759 1.516C22.3772 1.98267 22.6806 2.51933 22.8859 3.126C23.1006 3.73267 23.2079 4.386 23.2079 5.086C23.2079 5.786 23.1006 6.444 22.8859 7.06C22.6806 7.676 22.3772 8.21733 21.9759 8.684C21.5746 9.14133 21.0892 9.50533 20.5199 9.776C19.9506 10.0373 19.3019 10.168 18.5739 10.168ZM18.5739 9.02C19.2926 9.02 19.8946 8.84733 20.3799 8.502C20.8652 8.15667 21.2292 7.69 21.4719 7.102C21.7239 6.50467 21.8499 5.83267 21.8499 5.086C21.8499 4.582 21.7752 4.09667 21.6259 3.63C21.4766 3.16333 21.2619 2.748 20.9819 2.384C20.7019 2.01067 20.3566 1.71667 19.9459 1.502C19.5446 1.28733 19.0872 1.18 18.5739 1.18C17.8926 1.18 17.3046 1.35267 16.8099 1.698C16.3246 2.04333 15.9512 2.51 15.6899 3.098C15.4379 3.686 15.3119 4.34867 15.3119 5.086C15.3119 5.59 15.3819 6.08 15.5219 6.556C15.6712 7.02267 15.8859 7.44267 16.1659 7.816C16.4459 8.18933 16.7866 8.48333 17.1879 8.698C17.5986 8.91267 18.0606 9.02 18.5739 9.02ZM27.6843 10V0.199999H33.4943V1.348H29.0143V4.344H32.7523V5.436H29.0143V10H27.6843Z" fill="url(#paint0_linear_345_4619)"/>
<defs>
<linearGradient id="paint0_linear_345_4619" x1="26.0109" y1="2" x2="39.1821" y2="6.43155" gradientUnits="userSpaceOnUse">
<stop stop-color="white"/>
<stop offset="1" stop-color="#757A8C" stop-opacity="0"/>
</linearGradient>
</defs>
</svg>
