<svg width="20" height="20" viewBox="0 0 20 20" fill="none" xmlns="http://www.w3.org/2000/svg">
<g id="media-icons">
<path id="shape" d="M10.2603 7.63418C9.98525 7.8374 9.59603 7.64104 9.59603 7.29906V6.3618C9.59603 6.31252 9.55327 6.27395 9.50435 6.27991C7.44292 6.53081 5.84603 8.28701 5.84603 10.4162C5.84603 12.7176 7.71166 14.5832 10.013 14.5832C12.1739 14.5832 13.9507 12.9384 14.1595 10.8324C14.1822 10.6034 14.3666 10.4163 14.5968 10.4164L15.8461 10.4166C16.0762 10.4166 16.2641 10.6037 16.249 10.8333C16.0346 14.0908 13.3245 16.6666 10.0127 16.6666C6.56092 16.6666 3.7627 13.8684 3.7627 10.4166C3.7627 7.1314 6.29744 4.43816 9.51792 4.18595C9.56169 4.18252 9.59603 4.14619 9.59603 4.10229V3.11761C9.59603 2.77563 9.98527 2.57927 10.2603 2.78251L13.0899 4.87333C13.3153 5.03988 13.3153 5.377 13.0898 5.54355L10.2603 7.63418Z" fill="#A9AAAB"/>
</g>
</svg>
