<svg width="20" height="20" viewBox="0 0 20 20" fill="none" xmlns="http://www.w3.org/2000/svg">
<g id="media-icons">
<g id="shape">
<path d="M4.28927 15.7591C4.01423 15.9623 3.625 15.766 3.625 15.424L3.625 4.57589C3.625 4.23391 4.01424 4.03755 4.28929 4.24079L11.6301 9.66509C11.8555 9.83165 11.8555 10.1688 11.6301 10.3353L4.28927 15.7591Z" fill="#A9AAAB"/>
<path d="M15.0003 15.8333C14.7702 15.8333 14.5837 15.6467 14.5837 15.4166L14.5837 4.58327C14.5837 4.35315 14.7702 4.1666 15.0003 4.1666L16.2503 4.1666C16.4804 4.1666 16.667 4.35315 16.667 4.58327L16.667 15.4166C16.667 15.6467 16.4804 15.8333 16.2503 15.8333L15.0003 15.8333Z" fill="#A9AAAB"/>
</g>
</g>
</svg>
