<svg width="20" height="20" viewBox="0 0 20 20" fill="none" xmlns="http://www.w3.org/2000/svg">
<g id="media-icons">
<path id="shape" d="M9.75227 7.63418C10.0273 7.8374 10.4165 7.64104 10.4165 7.29906V6.3618C10.4165 6.31252 10.4593 6.27395 10.5082 6.27991C12.5697 6.53081 14.1665 8.28701 14.1665 10.4162C14.1665 12.7176 12.3009 14.5832 9.99954 14.5832C7.83865 14.5832 6.06192 12.9384 5.85306 10.8324C5.83035 10.6034 5.64594 10.4163 5.4158 10.4164L4.16647 10.4166C3.93638 10.4166 3.74843 10.6037 3.76355 10.8333C3.97796 14.0908 6.68811 16.6666 9.99988 16.6666C13.4517 16.6666 16.2499 13.8684 16.2499 10.4166C16.2499 7.1314 13.7151 4.43816 10.4947 4.18595C10.4509 4.18252 10.4165 4.14619 10.4165 4.10229V3.11761C10.4165 2.77563 10.0273 2.57927 9.75226 2.78251L6.92271 4.87333C6.69731 5.03988 6.69732 5.377 6.92273 5.54355L9.75227 7.63418Z" fill="#A9AAAB"/>
</g>
</svg>
