<svg width="24" height="24" viewBox="0 0 24 24" fill="none" xmlns="http://www.w3.org/2000/svg">
<path d="M21.0738 12.154C21.2716 12.1737 21.4535 12.2712 21.5795 12.4249C21.7055 12.5787 21.7653 12.7762 21.7458 12.974C21.2558 17.904 17.0878 21.75 12.0218 21.75C9.29778 21.75 6.65778 20.817 4.78378 19.07L2.99978 20.85C2.80087 20.85 2.61011 20.771 2.46945 20.6303C2.3288 20.4897 2.24978 20.2989 2.24978 20.1V16.14C2.24978 15.426 2.82978 14.85 3.54078 14.85H7.51078C7.7097 14.85 7.90046 14.929 8.04111 15.0697C8.18177 15.2103 8.26078 15.4011 8.26078 15.6L5.84778 18.007C7.40578 19.44 9.62778 20.25 12.0218 20.25C16.3118 20.25 19.8388 16.992 20.2538 12.826C20.2735 12.6282 20.3709 12.4463 20.5247 12.3203C20.6785 12.1943 20.8759 12.1345 21.0738 12.154ZM2.25378 11.026C2.74378 6.096 6.91178 2.25 11.9778 2.25C14.7018 2.25 17.3418 3.183 19.2158 4.93L20.9998 3.15C21.1987 3.15 21.3895 3.22902 21.5301 3.36967C21.6708 3.51032 21.7498 3.70109 21.7498 3.9V7.86C21.7498 8.574 21.1698 9.15 20.4588 9.15H16.4888C16.2899 9.15 16.0991 9.07098 15.9585 8.93033C15.8178 8.78968 15.7388 8.59891 15.7388 8.4L18.1518 5.992C16.5938 4.56 14.3718 3.75 11.9778 3.75C7.68778 3.75 4.16078 7.008 3.74578 11.174C3.73888 11.2742 3.71194 11.3719 3.66656 11.4614C3.62119 11.551 3.55829 11.6305 3.48161 11.6953C3.40493 11.7601 3.31602 11.8088 3.22016 11.8386C3.12429 11.8684 3.02342 11.8787 2.92353 11.8688C2.82363 11.8589 2.72673 11.829 2.63859 11.7809C2.55045 11.7329 2.47285 11.6676 2.41039 11.589C2.34793 11.5105 2.30189 11.4201 2.27499 11.3234C2.24809 11.2267 2.24088 11.1256 2.25378 11.026Z" fill="#A9AAAB"/>
</svg>
