<svg width="24" height="24" viewBox="0 0 24 24" fill="none" xmlns="http://www.w3.org/2000/svg">
<g id="ruler&#38;pen">
<g id="vuesax/linear/ruler&#38;pen">
<g id="ruler&#38;pen_2">
<path id="Vector" d="M21.4697 19.0001V5.00012C21.4697 3.00012 20.4697 2.00012 18.4697 2.00012H14.4697C12.4697 2.00012 11.4697 3.00012 11.4697 5.00012V19.0001C11.4697 21.0001 12.4697 22.0001 14.4697 22.0001H18.4697C20.4697 22.0001 21.4697 21.0001 21.4697 19.0001Z" stroke="#A9AAAB" stroke-width="1.5" stroke-linecap="round"/>
<path id="Vector_2" d="M11.4697 6.00012H16.4697" stroke="#A9AAAB" stroke-width="1.5" stroke-linecap="round"/>
<path id="Vector_3" d="M11.4697 18.0001H15.4697" stroke="#A9AAAB" stroke-width="1.5" stroke-linecap="round"/>
<path id="Vector_4" d="M11.4697 13.9501L16.4697 14.0001" stroke="#A9AAAB" stroke-width="1.5" stroke-linecap="round"/>
<path id="Vector_5" d="M11.4697 10.0001H14.4697" stroke="#A9AAAB" stroke-width="1.5" stroke-linecap="round"/>
<path id="Vector_6" d="M5.49027 2.00012C3.86027 2.00012 2.53027 3.33012 2.53027 4.95012V17.9101C2.53027 18.3601 2.72027 19.0401 2.95027 19.4301L3.77027 20.7901C4.71027 22.3601 6.26027 22.3601 7.20027 20.7901L8.02027 19.4301C8.25027 19.0401 8.44027 18.3601 8.44027 17.9101V4.95012C8.44027 3.33012 7.11027 2.00012 5.49027 2.00012Z" stroke="#A9AAAB" stroke-width="1.5" stroke-linecap="round"/>
<path id="Vector_7" d="M8.44027 7.00012H2.53027" stroke="#A9AAAB" stroke-width="1.5" stroke-linecap="round"/>
</g>
</g>
</g>
</svg>
